<mxfile host="app.diagrams.net" agent="Mozilla/5.0 (Windows NT 10.0; Win64; x64) AppleWebKit/537.36 (KHTML, like Gecko) Chrome/129.0.0.0 Safari/537.36" version="24.7.15">
  <diagram name="Page-1" id="iSd_Q4Pd8EUCXeInzqMF">
    <mxGraphModel dx="1373" dy="731" grid="0" gridSize="10" guides="1" tooltips="1" connect="1" arrows="1" fold="1" page="1" pageScale="1" pageWidth="1600" pageHeight="900" math="0" shadow="0">
      <root>
        <mxCell id="0" />
        <mxCell id="1" parent="0" />
        <mxCell id="cGZUAVI1Q5oGUs3ta00O-516" value="Users" style="shape=table;startSize=30;container=1;collapsible=1;childLayout=tableLayout;fixedRows=1;rowLines=0;fontStyle=1;align=center;resizeLast=1;fillColor=#fff2cc;strokeColor=#d6b656;" vertex="1" parent="1">
          <mxGeometry x="31.002379760742087" y="150.99725952148435" width="160" height="121.5" as="geometry" />
        </mxCell>
        <mxCell id="cGZUAVI1Q5oGUs3ta00O-1058" style="shape=partialRectangle;collapsible=0;dropTarget=0;pointerEvents=0;fillColor=none;points=[[0,0.5],[1,0.5]];portConstraint=eastwest;top=0;left=0;right=0;bottom=0;" vertex="1" parent="cGZUAVI1Q5oGUs3ta00O-516">
          <mxGeometry y="30" width="160" height="30" as="geometry" />
        </mxCell>
        <mxCell id="cGZUAVI1Q5oGUs3ta00O-1059" value="PK" style="shape=partialRectangle;overflow=hidden;connectable=0;fillColor=none;top=0;left=0;bottom=0;right=0;fontStyle=1" vertex="1" parent="cGZUAVI1Q5oGUs3ta00O-1058">
          <mxGeometry width="30" height="30" as="geometry">
            <mxRectangle width="30" height="30" as="alternateBounds" />
          </mxGeometry>
        </mxCell>
        <mxCell id="cGZUAVI1Q5oGUs3ta00O-1060" value="user_id" style="shape=partialRectangle;overflow=hidden;connectable=0;fillColor=none;top=0;left=0;bottom=0;right=0;align=left;spacingLeft=6;fontStyle=1" vertex="1" parent="cGZUAVI1Q5oGUs3ta00O-1058">
          <mxGeometry x="30" width="130" height="30" as="geometry">
            <mxRectangle width="130" height="30" as="alternateBounds" />
          </mxGeometry>
        </mxCell>
        <mxCell id="cGZUAVI1Q5oGUs3ta00O-520" value="" style="shape=partialRectangle;collapsible=0;dropTarget=0;pointerEvents=0;fillColor=none;points=[[0,0.5],[1,0.5]];portConstraint=eastwest;top=0;left=0;right=0;bottom=0;" vertex="1" parent="cGZUAVI1Q5oGUs3ta00O-516">
          <mxGeometry y="60" width="160" height="30" as="geometry" />
        </mxCell>
        <mxCell id="cGZUAVI1Q5oGUs3ta00O-521" value="" style="shape=partialRectangle;overflow=hidden;connectable=0;fillColor=none;top=0;left=0;bottom=0;right=0;" vertex="1" parent="cGZUAVI1Q5oGUs3ta00O-520">
          <mxGeometry width="30" height="30" as="geometry">
            <mxRectangle width="30" height="30" as="alternateBounds" />
          </mxGeometry>
        </mxCell>
        <mxCell id="cGZUAVI1Q5oGUs3ta00O-522" value="username" style="shape=partialRectangle;overflow=hidden;connectable=0;fillColor=none;top=0;left=0;bottom=0;right=0;align=left;spacingLeft=6;" vertex="1" parent="cGZUAVI1Q5oGUs3ta00O-520">
          <mxGeometry x="30" width="130" height="30" as="geometry">
            <mxRectangle width="130" height="30" as="alternateBounds" />
          </mxGeometry>
        </mxCell>
        <mxCell id="cGZUAVI1Q5oGUs3ta00O-526" style="shape=partialRectangle;collapsible=0;dropTarget=0;pointerEvents=0;fillColor=none;points=[[0,0.5],[1,0.5]];portConstraint=eastwest;top=0;left=0;right=0;bottom=0;" vertex="1" parent="cGZUAVI1Q5oGUs3ta00O-516">
          <mxGeometry y="90" width="160" height="30" as="geometry" />
        </mxCell>
        <mxCell id="cGZUAVI1Q5oGUs3ta00O-527" value="FK" style="shape=partialRectangle;overflow=hidden;connectable=0;fillColor=none;top=0;left=0;bottom=0;right=0;" vertex="1" parent="cGZUAVI1Q5oGUs3ta00O-526">
          <mxGeometry width="30" height="30" as="geometry">
            <mxRectangle width="30" height="30" as="alternateBounds" />
          </mxGeometry>
        </mxCell>
        <mxCell id="cGZUAVI1Q5oGUs3ta00O-528" value="role" style="shape=partialRectangle;overflow=hidden;connectable=0;fillColor=none;top=0;left=0;bottom=0;right=0;align=left;spacingLeft=6;" vertex="1" parent="cGZUAVI1Q5oGUs3ta00O-526">
          <mxGeometry x="30" width="130" height="30" as="geometry">
            <mxRectangle width="130" height="30" as="alternateBounds" />
          </mxGeometry>
        </mxCell>
        <mxCell id="cGZUAVI1Q5oGUs3ta00O-532" value="Settings" style="shape=table;startSize=30;container=1;collapsible=1;childLayout=tableLayout;fixedRows=1;rowLines=0;fontStyle=1;align=center;resizeLast=1;fillColor=#fff2cc;strokeColor=#d6b656;" vertex="1" parent="1">
          <mxGeometry x="31.002379760742087" y="563.9972595214844" width="160" height="120" as="geometry" />
        </mxCell>
        <mxCell id="cGZUAVI1Q5oGUs3ta00O-533" value="" style="shape=partialRectangle;collapsible=0;dropTarget=0;pointerEvents=0;fillColor=none;points=[[0,0.5],[1,0.5]];portConstraint=eastwest;top=0;left=0;right=0;bottom=0;" vertex="1" parent="cGZUAVI1Q5oGUs3ta00O-532">
          <mxGeometry y="30" width="160" height="30" as="geometry" />
        </mxCell>
        <mxCell id="cGZUAVI1Q5oGUs3ta00O-534" value="PK" style="shape=partialRectangle;overflow=hidden;connectable=0;fillColor=none;top=0;left=0;bottom=0;right=0;fontStyle=1" vertex="1" parent="cGZUAVI1Q5oGUs3ta00O-533">
          <mxGeometry width="45" height="30" as="geometry">
            <mxRectangle width="45" height="30" as="alternateBounds" />
          </mxGeometry>
        </mxCell>
        <mxCell id="cGZUAVI1Q5oGUs3ta00O-535" value="setting_id" style="shape=partialRectangle;overflow=hidden;connectable=0;fillColor=none;top=0;left=0;bottom=0;right=0;align=left;spacingLeft=6;fontStyle=1" vertex="1" parent="cGZUAVI1Q5oGUs3ta00O-533">
          <mxGeometry x="45" width="115" height="30" as="geometry">
            <mxRectangle width="115" height="30" as="alternateBounds" />
          </mxGeometry>
        </mxCell>
        <mxCell id="cGZUAVI1Q5oGUs3ta00O-542" style="shape=partialRectangle;collapsible=0;dropTarget=0;pointerEvents=0;fillColor=none;points=[[0,0.5],[1,0.5]];portConstraint=eastwest;top=0;left=0;right=0;bottom=0;" vertex="1" parent="cGZUAVI1Q5oGUs3ta00O-532">
          <mxGeometry y="60" width="160" height="30" as="geometry" />
        </mxCell>
        <mxCell id="cGZUAVI1Q5oGUs3ta00O-543" style="shape=partialRectangle;overflow=hidden;connectable=0;fillColor=none;top=0;left=0;bottom=0;right=0;" vertex="1" parent="cGZUAVI1Q5oGUs3ta00O-542">
          <mxGeometry width="45" height="30" as="geometry">
            <mxRectangle width="45" height="30" as="alternateBounds" />
          </mxGeometry>
        </mxCell>
        <mxCell id="cGZUAVI1Q5oGUs3ta00O-544" value="setting_name" style="shape=partialRectangle;overflow=hidden;connectable=0;fillColor=none;top=0;left=0;bottom=0;right=0;align=left;spacingLeft=6;" vertex="1" parent="cGZUAVI1Q5oGUs3ta00O-542">
          <mxGeometry x="45" width="115" height="30" as="geometry">
            <mxRectangle width="115" height="30" as="alternateBounds" />
          </mxGeometry>
        </mxCell>
        <mxCell id="cGZUAVI1Q5oGUs3ta00O-545" style="shape=partialRectangle;collapsible=0;dropTarget=0;pointerEvents=0;fillColor=none;points=[[0,0.5],[1,0.5]];portConstraint=eastwest;top=0;left=0;right=0;bottom=0;" vertex="1" parent="cGZUAVI1Q5oGUs3ta00O-532">
          <mxGeometry y="90" width="160" height="30" as="geometry" />
        </mxCell>
        <mxCell id="cGZUAVI1Q5oGUs3ta00O-546" style="shape=partialRectangle;overflow=hidden;connectable=0;fillColor=none;top=0;left=0;bottom=0;right=0;" vertex="1" parent="cGZUAVI1Q5oGUs3ta00O-545">
          <mxGeometry width="45" height="30" as="geometry">
            <mxRectangle width="45" height="30" as="alternateBounds" />
          </mxGeometry>
        </mxCell>
        <mxCell id="cGZUAVI1Q5oGUs3ta00O-547" value="setting_value" style="shape=partialRectangle;overflow=hidden;connectable=0;fillColor=none;top=0;left=0;bottom=0;right=0;align=left;spacingLeft=6;" vertex="1" parent="cGZUAVI1Q5oGUs3ta00O-545">
          <mxGeometry x="45" width="115" height="30" as="geometry">
            <mxRectangle width="115" height="30" as="alternateBounds" />
          </mxGeometry>
        </mxCell>
        <mxCell id="cGZUAVI1Q5oGUs3ta00O-548" value="Answers" style="shape=table;startSize=30;container=1;collapsible=1;childLayout=tableLayout;fixedRows=1;rowLines=0;fontStyle=1;align=center;resizeLast=1;fillColor=#fff2cc;strokeColor=#d6b656;" vertex="1" parent="1">
          <mxGeometry x="273.0023797607421" y="370.99725952148435" width="200" height="150" as="geometry" />
        </mxCell>
        <mxCell id="cGZUAVI1Q5oGUs3ta00O-549" value="" style="shape=partialRectangle;collapsible=0;dropTarget=0;pointerEvents=0;fillColor=none;points=[[0,0.5],[1,0.5]];portConstraint=eastwest;top=0;left=0;right=0;bottom=0;" vertex="1" parent="cGZUAVI1Q5oGUs3ta00O-548">
          <mxGeometry y="30" width="200" height="30" as="geometry" />
        </mxCell>
        <mxCell id="cGZUAVI1Q5oGUs3ta00O-550" value="PK" style="shape=partialRectangle;overflow=hidden;connectable=0;fillColor=none;top=0;left=0;bottom=0;right=0;fontStyle=1" vertex="1" parent="cGZUAVI1Q5oGUs3ta00O-549">
          <mxGeometry width="45" height="30" as="geometry">
            <mxRectangle width="45" height="30" as="alternateBounds" />
          </mxGeometry>
        </mxCell>
        <mxCell id="cGZUAVI1Q5oGUs3ta00O-551" value="answer_idÂ " style="shape=partialRectangle;overflow=hidden;connectable=0;fillColor=none;top=0;left=0;bottom=0;right=0;align=left;spacingLeft=6;fontStyle=1" vertex="1" parent="cGZUAVI1Q5oGUs3ta00O-549">
          <mxGeometry x="45" width="155" height="30" as="geometry">
            <mxRectangle width="155" height="30" as="alternateBounds" />
          </mxGeometry>
        </mxCell>
        <mxCell id="cGZUAVI1Q5oGUs3ta00O-552" style="shape=partialRectangle;collapsible=0;dropTarget=0;pointerEvents=0;fillColor=none;points=[[0,0.5],[1,0.5]];portConstraint=eastwest;top=0;left=0;right=0;bottom=0;" vertex="1" parent="cGZUAVI1Q5oGUs3ta00O-548">
          <mxGeometry y="60" width="200" height="30" as="geometry" />
        </mxCell>
        <mxCell id="cGZUAVI1Q5oGUs3ta00O-553" value="FK" style="shape=partialRectangle;overflow=hidden;connectable=0;fillColor=none;top=0;left=0;bottom=0;right=0;" vertex="1" parent="cGZUAVI1Q5oGUs3ta00O-552">
          <mxGeometry width="45" height="30" as="geometry">
            <mxRectangle width="45" height="30" as="alternateBounds" />
          </mxGeometry>
        </mxCell>
        <mxCell id="cGZUAVI1Q5oGUs3ta00O-554" value="question_id" style="shape=partialRectangle;overflow=hidden;connectable=0;fillColor=none;top=0;left=0;bottom=0;right=0;align=left;spacingLeft=6;" vertex="1" parent="cGZUAVI1Q5oGUs3ta00O-552">
          <mxGeometry x="45" width="155" height="30" as="geometry">
            <mxRectangle width="155" height="30" as="alternateBounds" />
          </mxGeometry>
        </mxCell>
        <mxCell id="cGZUAVI1Q5oGUs3ta00O-555" style="shape=partialRectangle;collapsible=0;dropTarget=0;pointerEvents=0;fillColor=none;points=[[0,0.5],[1,0.5]];portConstraint=eastwest;top=0;left=0;right=0;bottom=0;" vertex="1" parent="cGZUAVI1Q5oGUs3ta00O-548">
          <mxGeometry y="90" width="200" height="30" as="geometry" />
        </mxCell>
        <mxCell id="cGZUAVI1Q5oGUs3ta00O-556" value="" style="shape=partialRectangle;overflow=hidden;connectable=0;fillColor=none;top=0;left=0;bottom=0;right=0;" vertex="1" parent="cGZUAVI1Q5oGUs3ta00O-555">
          <mxGeometry width="45" height="30" as="geometry">
            <mxRectangle width="45" height="30" as="alternateBounds" />
          </mxGeometry>
        </mxCell>
        <mxCell id="cGZUAVI1Q5oGUs3ta00O-557" value="answer_text" style="shape=partialRectangle;overflow=hidden;connectable=0;fillColor=none;top=0;left=0;bottom=0;right=0;align=left;spacingLeft=6;" vertex="1" parent="cGZUAVI1Q5oGUs3ta00O-555">
          <mxGeometry x="45" width="155" height="30" as="geometry">
            <mxRectangle width="155" height="30" as="alternateBounds" />
          </mxGeometry>
        </mxCell>
        <mxCell id="cGZUAVI1Q5oGUs3ta00O-558" style="shape=partialRectangle;collapsible=0;dropTarget=0;pointerEvents=0;fillColor=none;points=[[0,0.5],[1,0.5]];portConstraint=eastwest;top=0;left=0;right=0;bottom=0;" vertex="1" parent="cGZUAVI1Q5oGUs3ta00O-548">
          <mxGeometry y="120" width="200" height="30" as="geometry" />
        </mxCell>
        <mxCell id="cGZUAVI1Q5oGUs3ta00O-559" value="" style="shape=partialRectangle;overflow=hidden;connectable=0;fillColor=none;top=0;left=0;bottom=0;right=0;" vertex="1" parent="cGZUAVI1Q5oGUs3ta00O-558">
          <mxGeometry width="45" height="30" as="geometry">
            <mxRectangle width="45" height="30" as="alternateBounds" />
          </mxGeometry>
        </mxCell>
        <mxCell id="cGZUAVI1Q5oGUs3ta00O-560" value="is_correct" style="shape=partialRectangle;overflow=hidden;connectable=0;fillColor=none;top=0;left=0;bottom=0;right=0;align=left;spacingLeft=6;" vertex="1" parent="cGZUAVI1Q5oGUs3ta00O-558">
          <mxGeometry x="45" width="155" height="30" as="geometry">
            <mxRectangle width="155" height="30" as="alternateBounds" />
          </mxGeometry>
        </mxCell>
        <mxCell id="cGZUAVI1Q5oGUs3ta00O-570" value="Tests" style="shape=table;startSize=30;container=1;collapsible=1;childLayout=tableLayout;fixedRows=1;rowLines=0;fontStyle=1;align=center;resizeLast=1;fillColor=#fff2cc;strokeColor=#d6b656;" vertex="1" parent="1">
          <mxGeometry x="511.2523797607421" y="150.99725952148435" width="200" height="180" as="geometry" />
        </mxCell>
        <mxCell id="cGZUAVI1Q5oGUs3ta00O-571" value="" style="shape=partialRectangle;collapsible=0;dropTarget=0;pointerEvents=0;fillColor=none;points=[[0,0.5],[1,0.5]];portConstraint=eastwest;top=0;left=0;right=0;bottom=0;" vertex="1" parent="cGZUAVI1Q5oGUs3ta00O-570">
          <mxGeometry y="30" width="200" height="30" as="geometry" />
        </mxCell>
        <mxCell id="cGZUAVI1Q5oGUs3ta00O-572" value="PK" style="shape=partialRectangle;overflow=hidden;connectable=0;fillColor=none;top=0;left=0;bottom=0;right=0;fontStyle=1" vertex="1" parent="cGZUAVI1Q5oGUs3ta00O-571">
          <mxGeometry width="45" height="30" as="geometry">
            <mxRectangle width="45" height="30" as="alternateBounds" />
          </mxGeometry>
        </mxCell>
        <mxCell id="cGZUAVI1Q5oGUs3ta00O-573" value="test_id" style="shape=partialRectangle;overflow=hidden;connectable=0;fillColor=none;top=0;left=0;bottom=0;right=0;align=left;spacingLeft=6;fontStyle=1" vertex="1" parent="cGZUAVI1Q5oGUs3ta00O-571">
          <mxGeometry x="45" width="155" height="30" as="geometry">
            <mxRectangle width="155" height="30" as="alternateBounds" />
          </mxGeometry>
        </mxCell>
        <mxCell id="cGZUAVI1Q5oGUs3ta00O-574" style="shape=partialRectangle;collapsible=0;dropTarget=0;pointerEvents=0;fillColor=none;points=[[0,0.5],[1,0.5]];portConstraint=eastwest;top=0;left=0;right=0;bottom=0;" vertex="1" parent="cGZUAVI1Q5oGUs3ta00O-570">
          <mxGeometry y="60" width="200" height="30" as="geometry" />
        </mxCell>
        <mxCell id="cGZUAVI1Q5oGUs3ta00O-575" value="" style="shape=partialRectangle;overflow=hidden;connectable=0;fillColor=none;top=0;left=0;bottom=0;right=0;" vertex="1" parent="cGZUAVI1Q5oGUs3ta00O-574">
          <mxGeometry width="45" height="30" as="geometry">
            <mxRectangle width="45" height="30" as="alternateBounds" />
          </mxGeometry>
        </mxCell>
        <mxCell id="cGZUAVI1Q5oGUs3ta00O-576" value="test_name" style="shape=partialRectangle;overflow=hidden;connectable=0;fillColor=none;top=0;left=0;bottom=0;right=0;align=left;spacingLeft=6;" vertex="1" parent="cGZUAVI1Q5oGUs3ta00O-574">
          <mxGeometry x="45" width="155" height="30" as="geometry">
            <mxRectangle width="155" height="30" as="alternateBounds" />
          </mxGeometry>
        </mxCell>
        <mxCell id="cGZUAVI1Q5oGUs3ta00O-577" style="shape=partialRectangle;collapsible=0;dropTarget=0;pointerEvents=0;fillColor=none;points=[[0,0.5],[1,0.5]];portConstraint=eastwest;top=0;left=0;right=0;bottom=0;" vertex="1" parent="cGZUAVI1Q5oGUs3ta00O-570">
          <mxGeometry y="90" width="200" height="30" as="geometry" />
        </mxCell>
        <mxCell id="cGZUAVI1Q5oGUs3ta00O-578" value="FK" style="shape=partialRectangle;overflow=hidden;connectable=0;fillColor=none;top=0;left=0;bottom=0;right=0;" vertex="1" parent="cGZUAVI1Q5oGUs3ta00O-577">
          <mxGeometry width="45" height="30" as="geometry">
            <mxRectangle width="45" height="30" as="alternateBounds" />
          </mxGeometry>
        </mxCell>
        <mxCell id="cGZUAVI1Q5oGUs3ta00O-579" value="creator" style="shape=partialRectangle;overflow=hidden;connectable=0;fillColor=none;top=0;left=0;bottom=0;right=0;align=left;spacingLeft=6;" vertex="1" parent="cGZUAVI1Q5oGUs3ta00O-577">
          <mxGeometry x="45" width="155" height="30" as="geometry">
            <mxRectangle width="155" height="30" as="alternateBounds" />
          </mxGeometry>
        </mxCell>
        <mxCell id="cGZUAVI1Q5oGUs3ta00O-1035" style="shape=partialRectangle;collapsible=0;dropTarget=0;pointerEvents=0;fillColor=none;points=[[0,0.5],[1,0.5]];portConstraint=eastwest;top=0;left=0;right=0;bottom=0;" vertex="1" parent="cGZUAVI1Q5oGUs3ta00O-570">
          <mxGeometry y="120" width="200" height="30" as="geometry" />
        </mxCell>
        <mxCell id="cGZUAVI1Q5oGUs3ta00O-1036" style="shape=partialRectangle;overflow=hidden;connectable=0;fillColor=none;top=0;left=0;bottom=0;right=0;" vertex="1" parent="cGZUAVI1Q5oGUs3ta00O-1035">
          <mxGeometry width="45" height="30" as="geometry">
            <mxRectangle width="45" height="30" as="alternateBounds" />
          </mxGeometry>
        </mxCell>
        <mxCell id="cGZUAVI1Q5oGUs3ta00O-1037" value="creation_date" style="shape=partialRectangle;overflow=hidden;connectable=0;fillColor=none;top=0;left=0;bottom=0;right=0;align=left;spacingLeft=6;" vertex="1" parent="cGZUAVI1Q5oGUs3ta00O-1035">
          <mxGeometry x="45" width="155" height="30" as="geometry">
            <mxRectangle width="155" height="30" as="alternateBounds" />
          </mxGeometry>
        </mxCell>
        <mxCell id="cGZUAVI1Q5oGUs3ta00O-1032" style="shape=partialRectangle;collapsible=0;dropTarget=0;pointerEvents=0;fillColor=none;points=[[0,0.5],[1,0.5]];portConstraint=eastwest;top=0;left=0;right=0;bottom=0;" vertex="1" parent="cGZUAVI1Q5oGUs3ta00O-570">
          <mxGeometry y="150" width="200" height="30" as="geometry" />
        </mxCell>
        <mxCell id="cGZUAVI1Q5oGUs3ta00O-1033" style="shape=partialRectangle;overflow=hidden;connectable=0;fillColor=none;top=0;left=0;bottom=0;right=0;" vertex="1" parent="cGZUAVI1Q5oGUs3ta00O-1032">
          <mxGeometry width="45" height="30" as="geometry">
            <mxRectangle width="45" height="30" as="alternateBounds" />
          </mxGeometry>
        </mxCell>
        <mxCell id="cGZUAVI1Q5oGUs3ta00O-1034" value="is_actiive" style="shape=partialRectangle;overflow=hidden;connectable=0;fillColor=none;top=0;left=0;bottom=0;right=0;align=left;spacingLeft=6;" vertex="1" parent="cGZUAVI1Q5oGUs3ta00O-1032">
          <mxGeometry x="45" width="155" height="30" as="geometry">
            <mxRectangle width="155" height="30" as="alternateBounds" />
          </mxGeometry>
        </mxCell>
        <mxCell id="cGZUAVI1Q5oGUs3ta00O-593" value="Questions" style="shape=table;startSize=30;container=1;collapsible=1;childLayout=tableLayout;fixedRows=1;rowLines=0;fontStyle=1;align=center;resizeLast=1;fillColor=#fff2cc;strokeColor=#d6b656;" vertex="1" parent="1">
          <mxGeometry x="31.002379760742087" y="370.99725952148435" width="160" height="150" as="geometry" />
        </mxCell>
        <mxCell id="cGZUAVI1Q5oGUs3ta00O-594" value="" style="shape=partialRectangle;collapsible=0;dropTarget=0;pointerEvents=0;fillColor=none;points=[[0,0.5],[1,0.5]];portConstraint=eastwest;top=0;left=0;right=0;bottom=0;" vertex="1" parent="cGZUAVI1Q5oGUs3ta00O-593">
          <mxGeometry y="30" width="160" height="30" as="geometry" />
        </mxCell>
        <mxCell id="cGZUAVI1Q5oGUs3ta00O-595" value="PK" style="shape=partialRectangle;overflow=hidden;connectable=0;fillColor=none;top=0;left=0;bottom=0;right=0;fontStyle=1" vertex="1" parent="cGZUAVI1Q5oGUs3ta00O-594">
          <mxGeometry width="45" height="30" as="geometry">
            <mxRectangle width="45" height="30" as="alternateBounds" />
          </mxGeometry>
        </mxCell>
        <mxCell id="cGZUAVI1Q5oGUs3ta00O-596" value="question_id" style="shape=partialRectangle;overflow=hidden;connectable=0;fillColor=none;top=0;left=0;bottom=0;right=0;align=left;spacingLeft=6;fontStyle=1" vertex="1" parent="cGZUAVI1Q5oGUs3ta00O-594">
          <mxGeometry x="45" width="115" height="30" as="geometry">
            <mxRectangle width="115" height="30" as="alternateBounds" />
          </mxGeometry>
        </mxCell>
        <mxCell id="cGZUAVI1Q5oGUs3ta00O-597" style="shape=partialRectangle;collapsible=0;dropTarget=0;pointerEvents=0;fillColor=none;points=[[0,0.5],[1,0.5]];portConstraint=eastwest;top=0;left=0;right=0;bottom=0;" vertex="1" parent="cGZUAVI1Q5oGUs3ta00O-593">
          <mxGeometry y="60" width="160" height="30" as="geometry" />
        </mxCell>
        <mxCell id="cGZUAVI1Q5oGUs3ta00O-598" value="FK" style="shape=partialRectangle;overflow=hidden;connectable=0;fillColor=none;top=0;left=0;bottom=0;right=0;" vertex="1" parent="cGZUAVI1Q5oGUs3ta00O-597">
          <mxGeometry width="45" height="30" as="geometry">
            <mxRectangle width="45" height="30" as="alternateBounds" />
          </mxGeometry>
        </mxCell>
        <mxCell id="cGZUAVI1Q5oGUs3ta00O-599" value="test_id" style="shape=partialRectangle;overflow=hidden;connectable=0;fillColor=none;top=0;left=0;bottom=0;right=0;align=left;spacingLeft=6;" vertex="1" parent="cGZUAVI1Q5oGUs3ta00O-597">
          <mxGeometry x="45" width="115" height="30" as="geometry">
            <mxRectangle width="115" height="30" as="alternateBounds" />
          </mxGeometry>
        </mxCell>
        <mxCell id="cGZUAVI1Q5oGUs3ta00O-1038" style="shape=partialRectangle;collapsible=0;dropTarget=0;pointerEvents=0;fillColor=none;points=[[0,0.5],[1,0.5]];portConstraint=eastwest;top=0;left=0;right=0;bottom=0;" vertex="1" parent="cGZUAVI1Q5oGUs3ta00O-593">
          <mxGeometry y="90" width="160" height="30" as="geometry" />
        </mxCell>
        <mxCell id="cGZUAVI1Q5oGUs3ta00O-1039" style="shape=partialRectangle;overflow=hidden;connectable=0;fillColor=none;top=0;left=0;bottom=0;right=0;" vertex="1" parent="cGZUAVI1Q5oGUs3ta00O-1038">
          <mxGeometry width="45" height="30" as="geometry">
            <mxRectangle width="45" height="30" as="alternateBounds" />
          </mxGeometry>
        </mxCell>
        <mxCell id="cGZUAVI1Q5oGUs3ta00O-1040" value="question_text" style="shape=partialRectangle;overflow=hidden;connectable=0;fillColor=none;top=0;left=0;bottom=0;right=0;align=left;spacingLeft=6;" vertex="1" parent="cGZUAVI1Q5oGUs3ta00O-1038">
          <mxGeometry x="45" width="115" height="30" as="geometry">
            <mxRectangle width="115" height="30" as="alternateBounds" />
          </mxGeometry>
        </mxCell>
        <mxCell id="cGZUAVI1Q5oGUs3ta00O-600" style="shape=partialRectangle;collapsible=0;dropTarget=0;pointerEvents=0;fillColor=none;points=[[0,0.5],[1,0.5]];portConstraint=eastwest;top=0;left=0;right=0;bottom=0;" vertex="1" parent="cGZUAVI1Q5oGUs3ta00O-593">
          <mxGeometry y="120" width="160" height="30" as="geometry" />
        </mxCell>
        <mxCell id="cGZUAVI1Q5oGUs3ta00O-601" style="shape=partialRectangle;overflow=hidden;connectable=0;fillColor=none;top=0;left=0;bottom=0;right=0;" vertex="1" parent="cGZUAVI1Q5oGUs3ta00O-600">
          <mxGeometry width="45" height="30" as="geometry">
            <mxRectangle width="45" height="30" as="alternateBounds" />
          </mxGeometry>
        </mxCell>
        <mxCell id="cGZUAVI1Q5oGUs3ta00O-602" value="question_type" style="shape=partialRectangle;overflow=hidden;connectable=0;fillColor=none;top=0;left=0;bottom=0;right=0;align=left;spacingLeft=6;" vertex="1" parent="cGZUAVI1Q5oGUs3ta00O-600">
          <mxGeometry x="45" width="115" height="30" as="geometry">
            <mxRectangle width="115" height="30" as="alternateBounds" />
          </mxGeometry>
        </mxCell>
        <mxCell id="cGZUAVI1Q5oGUs3ta00O-619" value="Roles" style="shape=table;startSize=30;container=1;collapsible=1;childLayout=tableLayout;fixedRows=1;rowLines=0;fontStyle=1;align=center;resizeLast=1;fillColor=#fff2cc;strokeColor=#d6b656;" vertex="1" parent="1">
          <mxGeometry x="273.0023797607421" y="150.99725952148435" width="160" height="90" as="geometry" />
        </mxCell>
        <mxCell id="cGZUAVI1Q5oGUs3ta00O-620" value="" style="shape=partialRectangle;collapsible=0;dropTarget=0;pointerEvents=0;fillColor=none;points=[[0,0.5],[1,0.5]];portConstraint=eastwest;top=0;left=0;right=0;bottom=0;" vertex="1" parent="cGZUAVI1Q5oGUs3ta00O-619">
          <mxGeometry y="30" width="160" height="30" as="geometry" />
        </mxCell>
        <mxCell id="cGZUAVI1Q5oGUs3ta00O-621" value="PK" style="shape=partialRectangle;overflow=hidden;connectable=0;fillColor=none;top=0;left=0;bottom=0;right=0;fontStyle=1" vertex="1" parent="cGZUAVI1Q5oGUs3ta00O-620">
          <mxGeometry width="45" height="30" as="geometry">
            <mxRectangle width="45" height="30" as="alternateBounds" />
          </mxGeometry>
        </mxCell>
        <mxCell id="cGZUAVI1Q5oGUs3ta00O-622" value="role_id" style="shape=partialRectangle;overflow=hidden;connectable=0;fillColor=none;top=0;left=0;bottom=0;right=0;align=left;spacingLeft=6;fontStyle=1" vertex="1" parent="cGZUAVI1Q5oGUs3ta00O-620">
          <mxGeometry x="45" width="115" height="30" as="geometry">
            <mxRectangle width="115" height="30" as="alternateBounds" />
          </mxGeometry>
        </mxCell>
        <mxCell id="cGZUAVI1Q5oGUs3ta00O-623" style="shape=partialRectangle;collapsible=0;dropTarget=0;pointerEvents=0;fillColor=none;points=[[0,0.5],[1,0.5]];portConstraint=eastwest;top=0;left=0;right=0;bottom=0;" vertex="1" parent="cGZUAVI1Q5oGUs3ta00O-619">
          <mxGeometry y="60" width="160" height="30" as="geometry" />
        </mxCell>
        <mxCell id="cGZUAVI1Q5oGUs3ta00O-624" value="" style="shape=partialRectangle;overflow=hidden;connectable=0;fillColor=none;top=0;left=0;bottom=0;right=0;" vertex="1" parent="cGZUAVI1Q5oGUs3ta00O-623">
          <mxGeometry width="45" height="30" as="geometry">
            <mxRectangle width="45" height="30" as="alternateBounds" />
          </mxGeometry>
        </mxCell>
        <mxCell id="cGZUAVI1Q5oGUs3ta00O-625" value="role_name" style="shape=partialRectangle;overflow=hidden;connectable=0;fillColor=none;top=0;left=0;bottom=0;right=0;align=left;spacingLeft=6;" vertex="1" parent="cGZUAVI1Q5oGUs3ta00O-623">
          <mxGeometry x="45" width="115" height="30" as="geometry">
            <mxRectangle width="115" height="30" as="alternateBounds" />
          </mxGeometry>
        </mxCell>
        <mxCell id="cGZUAVI1Q5oGUs3ta00O-635" value="Results" style="shape=table;startSize=30;container=1;collapsible=1;childLayout=tableLayout;fixedRows=1;rowLines=0;fontStyle=1;align=center;resizeLast=1;fillColor=#fff2cc;strokeColor=#d6b656;" vertex="1" parent="1">
          <mxGeometry x="551.0023797607421" y="370.99725952148435" width="159" height="180" as="geometry" />
        </mxCell>
        <mxCell id="cGZUAVI1Q5oGUs3ta00O-636" value="" style="shape=partialRectangle;collapsible=0;dropTarget=0;pointerEvents=0;fillColor=none;points=[[0,0.5],[1,0.5]];portConstraint=eastwest;top=0;left=0;right=0;bottom=0;" vertex="1" parent="cGZUAVI1Q5oGUs3ta00O-635">
          <mxGeometry y="30" width="159" height="30" as="geometry" />
        </mxCell>
        <mxCell id="cGZUAVI1Q5oGUs3ta00O-637" value="PK" style="shape=partialRectangle;overflow=hidden;connectable=0;fillColor=none;top=0;left=0;bottom=0;right=0;fontStyle=1" vertex="1" parent="cGZUAVI1Q5oGUs3ta00O-636">
          <mxGeometry width="45" height="30" as="geometry">
            <mxRectangle width="45" height="30" as="alternateBounds" />
          </mxGeometry>
        </mxCell>
        <mxCell id="cGZUAVI1Q5oGUs3ta00O-638" value="result_idÂ " style="shape=partialRectangle;overflow=hidden;connectable=0;fillColor=none;top=0;left=0;bottom=0;right=0;align=left;spacingLeft=6;fontStyle=1" vertex="1" parent="cGZUAVI1Q5oGUs3ta00O-636">
          <mxGeometry x="45" width="114" height="30" as="geometry">
            <mxRectangle width="114" height="30" as="alternateBounds" />
          </mxGeometry>
        </mxCell>
        <mxCell id="cGZUAVI1Q5oGUs3ta00O-639" style="shape=partialRectangle;collapsible=0;dropTarget=0;pointerEvents=0;fillColor=none;points=[[0,0.5],[1,0.5]];portConstraint=eastwest;top=0;left=0;right=0;bottom=0;" vertex="1" parent="cGZUAVI1Q5oGUs3ta00O-635">
          <mxGeometry y="60" width="159" height="30" as="geometry" />
        </mxCell>
        <mxCell id="cGZUAVI1Q5oGUs3ta00O-640" value="FK" style="shape=partialRectangle;overflow=hidden;connectable=0;fillColor=none;top=0;left=0;bottom=0;right=0;" vertex="1" parent="cGZUAVI1Q5oGUs3ta00O-639">
          <mxGeometry width="45" height="30" as="geometry">
            <mxRectangle width="45" height="30" as="alternateBounds" />
          </mxGeometry>
        </mxCell>
        <mxCell id="cGZUAVI1Q5oGUs3ta00O-641" value="user_id" style="shape=partialRectangle;overflow=hidden;connectable=0;fillColor=none;top=0;left=0;bottom=0;right=0;align=left;spacingLeft=6;" vertex="1" parent="cGZUAVI1Q5oGUs3ta00O-639">
          <mxGeometry x="45" width="114" height="30" as="geometry">
            <mxRectangle width="114" height="30" as="alternateBounds" />
          </mxGeometry>
        </mxCell>
        <mxCell id="cGZUAVI1Q5oGUs3ta00O-642" style="shape=partialRectangle;collapsible=0;dropTarget=0;pointerEvents=0;fillColor=none;points=[[0,0.5],[1,0.5]];portConstraint=eastwest;top=0;left=0;right=0;bottom=0;" vertex="1" parent="cGZUAVI1Q5oGUs3ta00O-635">
          <mxGeometry y="90" width="159" height="30" as="geometry" />
        </mxCell>
        <mxCell id="cGZUAVI1Q5oGUs3ta00O-643" value="FK" style="shape=partialRectangle;overflow=hidden;connectable=0;fillColor=none;top=0;left=0;bottom=0;right=0;" vertex="1" parent="cGZUAVI1Q5oGUs3ta00O-642">
          <mxGeometry width="45" height="30" as="geometry">
            <mxRectangle width="45" height="30" as="alternateBounds" />
          </mxGeometry>
        </mxCell>
        <mxCell id="cGZUAVI1Q5oGUs3ta00O-644" value="test_id" style="shape=partialRectangle;overflow=hidden;connectable=0;fillColor=none;top=0;left=0;bottom=0;right=0;align=left;spacingLeft=6;" vertex="1" parent="cGZUAVI1Q5oGUs3ta00O-642">
          <mxGeometry x="45" width="114" height="30" as="geometry">
            <mxRectangle width="114" height="30" as="alternateBounds" />
          </mxGeometry>
        </mxCell>
        <mxCell id="cGZUAVI1Q5oGUs3ta00O-645" style="shape=partialRectangle;collapsible=0;dropTarget=0;pointerEvents=0;fillColor=none;points=[[0,0.5],[1,0.5]];portConstraint=eastwest;top=0;left=0;right=0;bottom=0;" vertex="1" parent="cGZUAVI1Q5oGUs3ta00O-635">
          <mxGeometry y="120" width="159" height="30" as="geometry" />
        </mxCell>
        <mxCell id="cGZUAVI1Q5oGUs3ta00O-646" value="" style="shape=partialRectangle;overflow=hidden;connectable=0;fillColor=none;top=0;left=0;bottom=0;right=0;" vertex="1" parent="cGZUAVI1Q5oGUs3ta00O-645">
          <mxGeometry width="45" height="30" as="geometry">
            <mxRectangle width="45" height="30" as="alternateBounds" />
          </mxGeometry>
        </mxCell>
        <mxCell id="cGZUAVI1Q5oGUs3ta00O-647" value="score" style="shape=partialRectangle;overflow=hidden;connectable=0;fillColor=none;top=0;left=0;bottom=0;right=0;align=left;spacingLeft=6;" vertex="1" parent="cGZUAVI1Q5oGUs3ta00O-645">
          <mxGeometry x="45" width="114" height="30" as="geometry">
            <mxRectangle width="114" height="30" as="alternateBounds" />
          </mxGeometry>
        </mxCell>
        <mxCell id="cGZUAVI1Q5oGUs3ta00O-648" style="shape=partialRectangle;collapsible=0;dropTarget=0;pointerEvents=0;fillColor=none;points=[[0,0.5],[1,0.5]];portConstraint=eastwest;top=0;left=0;right=0;bottom=0;" vertex="1" parent="cGZUAVI1Q5oGUs3ta00O-635">
          <mxGeometry y="150" width="159" height="30" as="geometry" />
        </mxCell>
        <mxCell id="cGZUAVI1Q5oGUs3ta00O-649" style="shape=partialRectangle;overflow=hidden;connectable=0;fillColor=none;top=0;left=0;bottom=0;right=0;" vertex="1" parent="cGZUAVI1Q5oGUs3ta00O-648">
          <mxGeometry width="45" height="30" as="geometry">
            <mxRectangle width="45" height="30" as="alternateBounds" />
          </mxGeometry>
        </mxCell>
        <mxCell id="cGZUAVI1Q5oGUs3ta00O-650" value="date_taken" style="shape=partialRectangle;overflow=hidden;connectable=0;fillColor=none;top=0;left=0;bottom=0;right=0;align=left;spacingLeft=6;" vertex="1" parent="cGZUAVI1Q5oGUs3ta00O-648">
          <mxGeometry x="45" width="114" height="30" as="geometry">
            <mxRectangle width="114" height="30" as="alternateBounds" />
          </mxGeometry>
        </mxCell>
        <mxCell id="cGZUAVI1Q5oGUs3ta00O-669" value="" style="edgeStyle=elbowEdgeStyle;endArrow=ERzeroToMany;startArrow=ERone;endFill=1;startFill=0;entryX=1;entryY=0.5;entryDx=0;entryDy=0;rounded=0;curved=0;" edge="1" parent="1" source="cGZUAVI1Q5oGUs3ta00O-571" target="cGZUAVI1Q5oGUs3ta00O-654">
          <mxGeometry width="100" height="100" relative="1" as="geometry">
            <mxPoint x="721.0023797607421" y="205.99725952148435" as="sourcePoint" />
            <mxPoint x="720.0023797607421" y="575.9972595214844" as="targetPoint" />
            <Array as="points">
              <mxPoint x="751.0023797607421" y="390.99725952148435" />
            </Array>
          </mxGeometry>
        </mxCell>
        <mxCell id="cGZUAVI1Q5oGUs3ta00O-824" value="ORACLE" style="text;html=1;align=center;verticalAlign=middle;whiteSpace=wrap;rounded=0;fontStyle=1;fontSize=48;" vertex="1" parent="1">
          <mxGeometry x="117.00237976074209" y="807.9972595214844" width="60" height="30" as="geometry" />
        </mxCell>
        <mxCell id="cGZUAVI1Q5oGUs3ta00O-978" value="MS SQL" style="text;html=1;align=center;verticalAlign=middle;whiteSpace=wrap;rounded=0;fontStyle=1;fontSize=48;" vertex="1" parent="1">
          <mxGeometry x="61.00237976074209" y="1520.9972595214845" width="210" height="30" as="geometry" />
        </mxCell>
        <mxCell id="cGZUAVI1Q5oGUs3ta00O-980" value="ÐÐ¾Ð³Ð¸ÑÐµÑÐºÐ°Ñ ÑÑÐµÐ¼Ð°" style="text;html=1;align=center;verticalAlign=middle;whiteSpace=wrap;rounded=0;fontStyle=1;fontSize=48;" vertex="1" parent="1">
          <mxGeometry x="41.00237976074209" y="60.99725952148435" width="457.5" height="30" as="geometry" />
        </mxCell>
        <mxCell id="cGZUAVI1Q5oGUs3ta00O-981" value="Use-case Ð´Ð¸Ð°Ð³ÑÐ°Ð¼Ð¼Ñ" style="text;html=1;align=left;verticalAlign=middle;whiteSpace=wrap;rounded=0;fontStyle=1;fontSize=48;" vertex="1" parent="1">
          <mxGeometry x="1339.002379760742" y="105.99725952148435" width="540" height="30" as="geometry" />
        </mxCell>
        <mxCell id="cGZUAVI1Q5oGUs3ta00O-987" value="" style="group" vertex="1" connectable="0" parent="1">
          <mxGeometry x="1360.502379760742" y="180.99725952148435" width="120" height="50" as="geometry" />
        </mxCell>
        <mxCell id="cGZUAVI1Q5oGUs3ta00O-988" value="" style="ellipse;whiteSpace=wrap;html=1;" vertex="1" parent="cGZUAVI1Q5oGUs3ta00O-987">
          <mxGeometry width="120" height="50" as="geometry" />
        </mxCell>
        <mxCell id="cGZUAVI1Q5oGUs3ta00O-989" value="" style="endArrow=none;html=1;rounded=0;entryX=1;entryY=0.5;entryDx=0;entryDy=0;" edge="1" parent="1" target="cGZUAVI1Q5oGUs3ta00O-988">
          <mxGeometry width="50" height="50" relative="1" as="geometry">
            <mxPoint x="1541.5023797607419" y="207.42594373201064" as="sourcePoint" />
            <mxPoint x="1260.502379760742" y="350.99725952148435" as="targetPoint" />
          </mxGeometry>
        </mxCell>
        <mxCell id="cGZUAVI1Q5oGUs3ta00O-990" value="ÐÐ°ÑÑÑÐ¾Ð¹ÐºÐ° ÑÐµÑÐ¸, Ð±Ð°Ð·Ñ Ð´Ð°Ð½Ð½ÑÑ" style="text;html=1;align=center;verticalAlign=middle;whiteSpace=wrap;rounded=0;" vertex="1" parent="1">
          <mxGeometry x="1386.502379760742" y="194.62725952148423" width="70" height="21.88" as="geometry" />
        </mxCell>
        <mxCell id="cGZUAVI1Q5oGUs3ta00O-991" value="&lt;p style=&quot;margin-bottom:0cm;mso-add-space:auto;&lt;br/&gt;text-indent:-18.0pt;mso-list:l0 level1 lfo1;tab-stops:14.2pt&quot; class=&quot;MsoListParagraph&quot;&gt;&lt;span lang=&quot;ru-BY&quot;&gt;&lt;span style=&quot;font-variant-numeric: normal; font-variant-east-asian: normal; font-variant-alternates: normal; font-size-adjust: none; font-kerning: auto; font-optical-sizing: auto; font-feature-settings: normal; font-variation-settings: normal; font-variant-position: normal; font-stretch: normal; font-size: 7pt; line-height: normal; font-family: &amp;quot;Times New Roman&amp;quot;;&quot;&gt;&amp;nbsp;&lt;/span&gt;&lt;/span&gt;&lt;span lang=&quot;ru-BY&quot;&gt;ÐÐ½Ð°Ð»Ð¸ÑÐ¸Ðº&lt;/span&gt;&lt;br&gt;&lt;/p&gt;" style="shape=umlActor;verticalLabelPosition=bottom;verticalAlign=top;html=1;outlineConnect=0;" vertex="1" parent="1">
          <mxGeometry x="1559.002379760742" y="537.9972595214844" width="30" height="60" as="geometry" />
        </mxCell>
        <mxCell id="cGZUAVI1Q5oGUs3ta00O-992" value="" style="group" vertex="1" connectable="0" parent="1">
          <mxGeometry x="1679.002379760742" y="527.9972595214844" width="120" height="80" as="geometry" />
        </mxCell>
        <mxCell id="cGZUAVI1Q5oGUs3ta00O-993" value="" style="ellipse;whiteSpace=wrap;html=1;" vertex="1" parent="cGZUAVI1Q5oGUs3ta00O-992">
          <mxGeometry width="120" height="80" as="geometry" />
        </mxCell>
        <mxCell id="cGZUAVI1Q5oGUs3ta00O-994" value="ÐÑÐ¾Ð²ÐµÑÐºÐ° ÑÐµÑÑÐ¾Ð²" style="text;html=1;align=center;verticalAlign=middle;whiteSpace=wrap;rounded=0;" vertex="1" parent="cGZUAVI1Q5oGUs3ta00O-992">
          <mxGeometry x="30" y="25" width="60" height="35" as="geometry" />
        </mxCell>
        <mxCell id="cGZUAVI1Q5oGUs3ta00O-995" value="" style="endArrow=none;html=1;rounded=0;entryX=0;entryY=0.5;entryDx=0;entryDy=0;" edge="1" parent="1" source="cGZUAVI1Q5oGUs3ta00O-991" target="cGZUAVI1Q5oGUs3ta00O-993">
          <mxGeometry width="50" height="50" relative="1" as="geometry">
            <mxPoint x="1529.002379760742" y="737.9972595214844" as="sourcePoint" />
            <mxPoint x="1579.002379760742" y="687.9972595214844" as="targetPoint" />
          </mxGeometry>
        </mxCell>
        <mxCell id="cGZUAVI1Q5oGUs3ta00O-1001" value="" style="group" vertex="1" connectable="0" parent="1">
          <mxGeometry x="1360.502379760742" y="542.9972595214844" width="120" height="50" as="geometry" />
        </mxCell>
        <mxCell id="cGZUAVI1Q5oGUs3ta00O-1002" value="" style="group" vertex="1" connectable="0" parent="cGZUAVI1Q5oGUs3ta00O-1001">
          <mxGeometry width="120" height="50" as="geometry" />
        </mxCell>
        <mxCell id="cGZUAVI1Q5oGUs3ta00O-1003" value="" style="ellipse;whiteSpace=wrap;html=1;" vertex="1" parent="cGZUAVI1Q5oGUs3ta00O-1002">
          <mxGeometry width="120" height="50" as="geometry" />
        </mxCell>
        <mxCell id="cGZUAVI1Q5oGUs3ta00O-1004" value="ÐÐ½Ð°Ð»Ð¸Ð· ÑÐµÐ·ÑÐ»ÑÑÐ°ÑÐ¾Ð²" style="text;html=1;align=center;verticalAlign=middle;whiteSpace=wrap;rounded=0;" vertex="1" parent="cGZUAVI1Q5oGUs3ta00O-1001">
          <mxGeometry x="15" y="11.629999999999995" width="94" height="21.88" as="geometry" />
        </mxCell>
        <mxCell id="cGZUAVI1Q5oGUs3ta00O-1005" value="" style="endArrow=none;html=1;rounded=0;entryX=1;entryY=0.5;entryDx=0;entryDy=0;" edge="1" parent="1" source="cGZUAVI1Q5oGUs3ta00O-991" target="cGZUAVI1Q5oGUs3ta00O-1003">
          <mxGeometry width="50" height="50" relative="1" as="geometry">
            <mxPoint x="1669.002379760742" y="787.9972595214844" as="sourcePoint" />
            <mxPoint x="1719.002379760742" y="737.9972595214844" as="targetPoint" />
          </mxGeometry>
        </mxCell>
        <mxCell id="cGZUAVI1Q5oGUs3ta00O-1006" value="&lt;p style=&quot;margin-bottom:0cm;mso-add-space:auto;&lt;br/&gt;text-indent:-18.0pt;mso-list:l0 level1 lfo1;tab-stops:14.2pt&quot; class=&quot;MsoListParagraph&quot;&gt;&lt;span lang=&quot;ru-BY&quot;&gt;&lt;span style=&quot;font-variant-numeric: normal; font-variant-east-asian: normal; font-variant-alternates: normal; font-size-adjust: none; font-kerning: auto; font-optical-sizing: auto; font-feature-settings: normal; font-variation-settings: normal; font-variant-position: normal; font-stretch: normal; font-size: 7pt; line-height: normal; font-family: &amp;quot;Times New Roman&amp;quot;;&quot;&gt;&amp;nbsp;&lt;/span&gt;&lt;/span&gt;&lt;span lang=&quot;ru-BY&quot;&gt;Ð¡ÑÑÐ´ÐµÐ½ÑÑ&lt;/span&gt;&lt;br&gt;&lt;/p&gt;" style="shape=umlActor;verticalLabelPosition=bottom;verticalAlign=top;html=1;outlineConnect=0;" vertex="1" parent="1">
          <mxGeometry x="1559.002379760742" y="423.99725952148435" width="30" height="60" as="geometry" />
        </mxCell>
        <mxCell id="cGZUAVI1Q5oGUs3ta00O-1007" value="" style="group" vertex="1" connectable="0" parent="1">
          <mxGeometry x="1679.002379760742" y="413.99725952148435" width="120" height="80" as="geometry" />
        </mxCell>
        <mxCell id="cGZUAVI1Q5oGUs3ta00O-1008" value="" style="ellipse;whiteSpace=wrap;html=1;" vertex="1" parent="cGZUAVI1Q5oGUs3ta00O-1007">
          <mxGeometry width="120" height="80" as="geometry" />
        </mxCell>
        <mxCell id="cGZUAVI1Q5oGUs3ta00O-1009" value="ÐÑÐ¾ÑÐ¾Ð¶Ð´ÐµÐ½Ð¸Ðµ ÑÐµÑÑÐ¾Ð²" style="text;html=1;align=center;verticalAlign=middle;whiteSpace=wrap;rounded=0;" vertex="1" parent="cGZUAVI1Q5oGUs3ta00O-1007">
          <mxGeometry x="30" y="25" width="60" height="35" as="geometry" />
        </mxCell>
        <mxCell id="cGZUAVI1Q5oGUs3ta00O-1010" value="" style="endArrow=none;html=1;rounded=0;entryX=0;entryY=0.5;entryDx=0;entryDy=0;" edge="1" parent="1" source="cGZUAVI1Q5oGUs3ta00O-1006" target="cGZUAVI1Q5oGUs3ta00O-1008">
          <mxGeometry width="50" height="50" relative="1" as="geometry">
            <mxPoint x="1529.002379760742" y="623.9972595214844" as="sourcePoint" />
            <mxPoint x="1579.002379760742" y="573.9972595214844" as="targetPoint" />
          </mxGeometry>
        </mxCell>
        <mxCell id="cGZUAVI1Q5oGUs3ta00O-1011" value="" style="group" vertex="1" connectable="0" parent="1">
          <mxGeometry x="1358.002379760742" y="428.99725952148435" width="120" height="50" as="geometry" />
        </mxCell>
        <mxCell id="cGZUAVI1Q5oGUs3ta00O-1012" value="" style="group" vertex="1" connectable="0" parent="cGZUAVI1Q5oGUs3ta00O-1011">
          <mxGeometry width="120" height="50" as="geometry" />
        </mxCell>
        <mxCell id="cGZUAVI1Q5oGUs3ta00O-1013" value="" style="ellipse;whiteSpace=wrap;html=1;" vertex="1" parent="cGZUAVI1Q5oGUs3ta00O-1012">
          <mxGeometry width="120" height="50" as="geometry" />
        </mxCell>
        <mxCell id="cGZUAVI1Q5oGUs3ta00O-1014" value="" style="endArrow=none;html=1;rounded=0;entryX=1;entryY=0.5;entryDx=0;entryDy=0;" edge="1" parent="1" source="cGZUAVI1Q5oGUs3ta00O-1006" target="cGZUAVI1Q5oGUs3ta00O-1013">
          <mxGeometry width="50" height="50" relative="1" as="geometry">
            <mxPoint x="1539.002379760742" y="723.9972595214844" as="sourcePoint" />
            <mxPoint x="1589.002379760742" y="673.9972595214844" as="targetPoint" />
          </mxGeometry>
        </mxCell>
        <mxCell id="cGZUAVI1Q5oGUs3ta00O-1015" value="&lt;p style=&quot;margin-bottom:0cm;mso-add-space:auto;&lt;br/&gt;text-indent:-18.0pt;mso-list:l0 level1 lfo1;tab-stops:14.2pt&quot; class=&quot;MsoListParagraph&quot;&gt;&lt;span lang=&quot;ru-BY&quot;&gt;&lt;span style=&quot;font-variant-numeric: normal; font-variant-east-asian: normal; font-variant-alternates: normal; font-size-adjust: none; font-kerning: auto; font-optical-sizing: auto; font-feature-settings: normal; font-variation-settings: normal; font-variant-position: normal; font-stretch: normal; font-size: 7pt; line-height: normal; font-family: &amp;quot;Times New Roman&amp;quot;;&quot;&gt;&amp;nbsp;&lt;/span&gt;&lt;/span&gt;&lt;span lang=&quot;ru-BY&quot;&gt;ÐÑÐµÐ¿Ð¾Ð´Ð°Ð²Ð°ÑÐµÐ»Ð¸&lt;/span&gt;&lt;br&gt;&lt;/p&gt;" style="shape=umlActor;verticalLabelPosition=bottom;verticalAlign=top;html=1;outlineConnect=0;" vertex="1" parent="1">
          <mxGeometry x="1559.002379760742" y="298.99725952148435" width="30" height="60" as="geometry" />
        </mxCell>
        <mxCell id="cGZUAVI1Q5oGUs3ta00O-1016" value="" style="group" vertex="1" connectable="0" parent="1">
          <mxGeometry x="1679.002379760742" y="288.99725952148435" width="120" height="80" as="geometry" />
        </mxCell>
        <mxCell id="cGZUAVI1Q5oGUs3ta00O-1017" value="" style="ellipse;whiteSpace=wrap;html=1;" vertex="1" parent="cGZUAVI1Q5oGUs3ta00O-1016">
          <mxGeometry width="120" height="80" as="geometry" />
        </mxCell>
        <mxCell id="cGZUAVI1Q5oGUs3ta00O-1018" value="Ð¡Ð¾Ð·Ð´Ð°Ð½Ð¸Ðµ ÑÐµÑÑÐ¾Ð²" style="text;html=1;align=center;verticalAlign=middle;whiteSpace=wrap;rounded=0;" vertex="1" parent="cGZUAVI1Q5oGUs3ta00O-1016">
          <mxGeometry x="30" y="25" width="60" height="35" as="geometry" />
        </mxCell>
        <mxCell id="cGZUAVI1Q5oGUs3ta00O-1019" value="" style="endArrow=none;html=1;rounded=0;entryX=0;entryY=0.5;entryDx=0;entryDy=0;" edge="1" parent="1" source="cGZUAVI1Q5oGUs3ta00O-1015" target="cGZUAVI1Q5oGUs3ta00O-1017">
          <mxGeometry width="50" height="50" relative="1" as="geometry">
            <mxPoint x="1529.002379760742" y="498.99725952148435" as="sourcePoint" />
            <mxPoint x="1579.002379760742" y="448.99725952148435" as="targetPoint" />
          </mxGeometry>
        </mxCell>
        <mxCell id="cGZUAVI1Q5oGUs3ta00O-1020" value="" style="group" vertex="1" connectable="0" parent="1">
          <mxGeometry x="1372.002379760742" y="303.99725952148435" width="120" height="50" as="geometry" />
        </mxCell>
        <mxCell id="cGZUAVI1Q5oGUs3ta00O-1021" value="" style="group" vertex="1" connectable="0" parent="cGZUAVI1Q5oGUs3ta00O-1020">
          <mxGeometry width="120" height="50" as="geometry" />
        </mxCell>
        <mxCell id="cGZUAVI1Q5oGUs3ta00O-1022" value="" style="ellipse;whiteSpace=wrap;html=1;" vertex="1" parent="cGZUAVI1Q5oGUs3ta00O-1021">
          <mxGeometry width="120" height="50" as="geometry" />
        </mxCell>
        <mxCell id="cGZUAVI1Q5oGUs3ta00O-1023" value="ÐÑÐ¾Ð²ÐµÑÐºÐ° ÑÐµÐ·ÑÐ»ÑÑÐ°ÑÐ¾Ð²" style="text;html=1;align=center;verticalAlign=middle;whiteSpace=wrap;rounded=0;" vertex="1" parent="cGZUAVI1Q5oGUs3ta00O-1020">
          <mxGeometry x="12" y="13.629999999999995" width="94" height="21.88" as="geometry" />
        </mxCell>
        <mxCell id="cGZUAVI1Q5oGUs3ta00O-1024" value="" style="endArrow=none;html=1;rounded=0;entryX=1;entryY=0.5;entryDx=0;entryDy=0;" edge="1" parent="1" source="cGZUAVI1Q5oGUs3ta00O-1015" target="cGZUAVI1Q5oGUs3ta00O-1022">
          <mxGeometry width="50" height="50" relative="1" as="geometry">
            <mxPoint x="1669.002379760742" y="548.9972595214844" as="sourcePoint" />
            <mxPoint x="1719.002379760742" y="498.99725952148435" as="targetPoint" />
          </mxGeometry>
        </mxCell>
        <mxCell id="cGZUAVI1Q5oGUs3ta00O-1025" value="&lt;p style=&quot;margin-bottom:0cm;mso-add-space:auto;&lt;br/&gt;text-indent:-18.0pt;mso-list:l0 level1 lfo1;tab-stops:14.2pt&quot; class=&quot;MsoListParagraph&quot;&gt;&lt;span lang=&quot;ru-BY&quot;&gt;&lt;span style=&quot;font-variant-numeric: normal; font-variant-east-asian: normal; font-variant-alternates: normal; font-size-adjust: none; font-kerning: auto; font-optical-sizing: auto; font-feature-settings: normal; font-variation-settings: normal; font-variant-position: normal; font-stretch: normal; font-size: 7pt; line-height: normal; font-family: &amp;quot;Times New Roman&amp;quot;;&quot;&gt;&amp;nbsp;&lt;/span&gt;&lt;/span&gt;&lt;span lang=&quot;ru-BY&quot;&gt;ÐÐ´Ð¼Ð¸Ð½Ð¸ÑÑÑÐ°ÑÐ¾ÑÑ&lt;/span&gt;&lt;br&gt;&lt;/p&gt;" style="shape=umlActor;verticalLabelPosition=bottom;verticalAlign=top;html=1;outlineConnect=0;" vertex="1" parent="1">
          <mxGeometry x="1558.002379760742" y="170.99725952148435" width="30" height="60" as="geometry" />
        </mxCell>
        <mxCell id="cGZUAVI1Q5oGUs3ta00O-1026" value="" style="group" vertex="1" connectable="0" parent="1">
          <mxGeometry x="1654" y="175" width="138" height="58" as="geometry" />
        </mxCell>
        <mxCell id="cGZUAVI1Q5oGUs3ta00O-1027" value="" style="ellipse;whiteSpace=wrap;html=1;" vertex="1" parent="cGZUAVI1Q5oGUs3ta00O-1026">
          <mxGeometry width="116.61971830985915" height="58" as="geometry" />
        </mxCell>
        <mxCell id="cGZUAVI1Q5oGUs3ta00O-1028" value="Ð£Ð¿ÑÐ°Ð²Ð»ÐµÐ½Ð¸Ðµ Ð¿Ð¾Ð»ÑÐ·Ð¾Ð²Ð°ÑÐµÐ»ÑÐ¼Ð¸" style="text;html=1;align=center;verticalAlign=middle;whiteSpace=wrap;rounded=0;" vertex="1" parent="cGZUAVI1Q5oGUs3ta00O-1026">
          <mxGeometry x="7.771212121212122" y="10.91089108910891" width="105.8348484848485" height="33.31267326732673" as="geometry" />
        </mxCell>
        <mxCell id="cGZUAVI1Q5oGUs3ta00O-1029" value="" style="endArrow=none;html=1;rounded=0;entryX=0;entryY=0.5;entryDx=0;entryDy=0;" edge="1" parent="1" source="cGZUAVI1Q5oGUs3ta00O-1025" target="cGZUAVI1Q5oGUs3ta00O-1027">
          <mxGeometry width="50" height="50" relative="1" as="geometry">
            <mxPoint x="1528.002379760742" y="370.99725952148435" as="sourcePoint" />
            <mxPoint x="1578.002379760742" y="320.99725952148435" as="targetPoint" />
          </mxGeometry>
        </mxCell>
        <mxCell id="cGZUAVI1Q5oGUs3ta00O-1030" value="ÐÑÐ¾ÑÐ¼Ð¾ÑÑ ÑÐµÐ·ÑÐ»ÑÑÐ°ÑÐ¾Ð²" style="text;html=1;align=center;verticalAlign=middle;whiteSpace=wrap;rounded=0;" vertex="1" parent="1">
          <mxGeometry x="1372.002379760742" y="442.49725952148435" width="94" height="21.88" as="geometry" />
        </mxCell>
        <mxCell id="cGZUAVI1Q5oGUs3ta00O-1056" value="" style="edgeStyle=orthogonalEdgeStyle;endArrow=ERzeroToMany;startArrow=ERone;endFill=1;startFill=0;rounded=0;" edge="1" parent="1" source="cGZUAVI1Q5oGUs3ta00O-517" target="cGZUAVI1Q5oGUs3ta00O-639">
          <mxGeometry width="100" height="100" relative="1" as="geometry">
            <mxPoint x="191" y="197" as="sourcePoint" />
            <mxPoint x="301" y="305" as="targetPoint" />
            <Array as="points">
              <mxPoint x="241" y="197" />
              <mxPoint x="241" y="305" />
              <mxPoint x="492" y="305" />
              <mxPoint x="492" y="446" />
            </Array>
          </mxGeometry>
        </mxCell>
        <mxCell id="cGZUAVI1Q5oGUs3ta00O-1057" value="" style="edgeStyle=orthogonalEdgeStyle;endArrow=ERzeroToMany;startArrow=ERone;endFill=1;startFill=0;rounded=0;" edge="1" parent="1" source="cGZUAVI1Q5oGUs3ta00O-620" target="cGZUAVI1Q5oGUs3ta00O-526">
          <mxGeometry width="100" height="100" relative="1" as="geometry">
            <mxPoint x="297.5023797607422" y="195" as="sourcePoint" />
            <mxPoint x="215.02237976074218" y="280.4072595214843" as="targetPoint" />
            <Array as="points">
              <mxPoint x="258" y="196" />
              <mxPoint x="258" y="278" />
              <mxPoint x="206" y="278" />
              <mxPoint x="206" y="256" />
            </Array>
          </mxGeometry>
        </mxCell>
        <mxCell id="cGZUAVI1Q5oGUs3ta00O-1061" value="" style="edgeStyle=orthogonalEdgeStyle;endArrow=ERzeroToMany;startArrow=ERone;endFill=1;startFill=0;rounded=0;" edge="1" parent="1" target="cGZUAVI1Q5oGUs3ta00O-639">
          <mxGeometry width="100" height="100" relative="1" as="geometry">
            <mxPoint x="191.0023797607421" y="196" as="sourcePoint" />
            <mxPoint x="201" y="286" as="targetPoint" />
            <Array as="points">
              <mxPoint x="227" y="196" />
              <mxPoint x="227" y="264" />
              <mxPoint x="503" y="264" />
              <mxPoint x="503" y="446" />
            </Array>
          </mxGeometry>
        </mxCell>
        <mxCell id="cGZUAVI1Q5oGUs3ta00O-1062" value="" style="edgeStyle=orthogonalEdgeStyle;endArrow=ERzeroToMany;startArrow=ERone;endFill=1;startFill=0;rounded=0;" edge="1" parent="1" source="cGZUAVI1Q5oGUs3ta00O-571" target="cGZUAVI1Q5oGUs3ta00O-597">
          <mxGeometry width="100" height="100" relative="1" as="geometry">
            <mxPoint x="293" y="216" as="sourcePoint" />
            <mxPoint x="211" y="306" as="targetPoint" />
            <Array as="points">
              <mxPoint x="457" y="196" />
              <mxPoint x="457" y="306" />
              <mxPoint x="222" y="306" />
              <mxPoint x="222" y="446" />
            </Array>
          </mxGeometry>
        </mxCell>
        <mxCell id="cGZUAVI1Q5oGUs3ta00O-1063" value="" style="edgeStyle=orthogonalEdgeStyle;endArrow=ERzeroToMany;startArrow=ERone;endFill=1;startFill=0;rounded=0;" edge="1" parent="1" source="cGZUAVI1Q5oGUs3ta00O-571" target="cGZUAVI1Q5oGUs3ta00O-642">
          <mxGeometry width="100" height="100" relative="1" as="geometry">
            <mxPoint x="303" y="226" as="sourcePoint" />
            <mxPoint x="221" y="316" as="targetPoint" />
            <Array as="points">
              <mxPoint x="483" y="196" />
              <mxPoint x="483" y="476" />
            </Array>
          </mxGeometry>
        </mxCell>
        <mxCell id="cGZUAVI1Q5oGUs3ta00O-1064" value="" style="edgeStyle=orthogonalEdgeStyle;endArrow=ERzeroToMany;startArrow=ERone;endFill=1;startFill=0;rounded=0;" edge="1" parent="1" source="cGZUAVI1Q5oGUs3ta00O-594" target="cGZUAVI1Q5oGUs3ta00O-552">
          <mxGeometry width="100" height="100" relative="1" as="geometry">
            <mxPoint x="313" y="236" as="sourcePoint" />
            <mxPoint x="231" y="326" as="targetPoint" />
            <Array as="points">
              <mxPoint x="238" y="416" />
              <mxPoint x="238" y="446" />
            </Array>
          </mxGeometry>
        </mxCell>
        <mxCell id="cGZUAVI1Q5oGUs3ta00O-1066" value="" style="edgeStyle=orthogonalEdgeStyle;endArrow=ERzeroToMany;startArrow=ERone;endFill=1;startFill=0;rounded=0;" edge="1" parent="1" source="cGZUAVI1Q5oGUs3ta00O-1058" target="cGZUAVI1Q5oGUs3ta00O-577">
          <mxGeometry width="100" height="100" relative="1" as="geometry">
            <mxPoint x="323" y="246" as="sourcePoint" />
            <mxPoint x="241" y="336" as="targetPoint" />
            <Array as="points">
              <mxPoint x="250" y="196" />
              <mxPoint x="250" y="256" />
            </Array>
          </mxGeometry>
        </mxCell>
        <mxCell id="cGZUAVI1Q5oGUs3ta00O-1067" value="Users" style="shape=table;startSize=30;container=1;collapsible=1;childLayout=tableLayout;fixedRows=1;rowLines=0;fontStyle=1;align=center;resizeLast=1;fillColor=#fff2cc;strokeColor=#d6b656;" vertex="1" parent="1">
          <mxGeometry x="38" y="1579" width="191" height="121.5" as="geometry" />
        </mxCell>
        <mxCell id="cGZUAVI1Q5oGUs3ta00O-1068" style="shape=partialRectangle;collapsible=0;dropTarget=0;pointerEvents=0;fillColor=none;points=[[0,0.5],[1,0.5]];portConstraint=eastwest;top=0;left=0;right=0;bottom=0;" vertex="1" parent="cGZUAVI1Q5oGUs3ta00O-1067">
          <mxGeometry y="30" width="191" height="30" as="geometry" />
        </mxCell>
        <mxCell id="cGZUAVI1Q5oGUs3ta00O-1069" value="PK" style="shape=partialRectangle;overflow=hidden;connectable=0;fillColor=none;top=0;left=0;bottom=0;right=0;fontStyle=1" vertex="1" parent="cGZUAVI1Q5oGUs3ta00O-1068">
          <mxGeometry width="30" height="30" as="geometry">
            <mxRectangle width="30" height="30" as="alternateBounds" />
          </mxGeometry>
        </mxCell>
        <mxCell id="cGZUAVI1Q5oGUs3ta00O-1070" value="user_id INT" style="shape=partialRectangle;overflow=hidden;connectable=0;fillColor=none;top=0;left=0;bottom=0;right=0;align=left;spacingLeft=6;fontStyle=1" vertex="1" parent="cGZUAVI1Q5oGUs3ta00O-1068">
          <mxGeometry x="30" width="161" height="30" as="geometry">
            <mxRectangle width="161" height="30" as="alternateBounds" />
          </mxGeometry>
        </mxCell>
        <mxCell id="cGZUAVI1Q5oGUs3ta00O-1071" value="" style="shape=partialRectangle;collapsible=0;dropTarget=0;pointerEvents=0;fillColor=none;points=[[0,0.5],[1,0.5]];portConstraint=eastwest;top=0;left=0;right=0;bottom=0;" vertex="1" parent="cGZUAVI1Q5oGUs3ta00O-1067">
          <mxGeometry y="60" width="191" height="30" as="geometry" />
        </mxCell>
        <mxCell id="cGZUAVI1Q5oGUs3ta00O-1072" value="" style="shape=partialRectangle;overflow=hidden;connectable=0;fillColor=none;top=0;left=0;bottom=0;right=0;" vertex="1" parent="cGZUAVI1Q5oGUs3ta00O-1071">
          <mxGeometry width="30" height="30" as="geometry">
            <mxRectangle width="30" height="30" as="alternateBounds" />
          </mxGeometry>
        </mxCell>
        <mxCell id="cGZUAVI1Q5oGUs3ta00O-1073" value="username VARCHAR(255)" style="shape=partialRectangle;overflow=hidden;connectable=0;fillColor=none;top=0;left=0;bottom=0;right=0;align=left;spacingLeft=6;" vertex="1" parent="cGZUAVI1Q5oGUs3ta00O-1071">
          <mxGeometry x="30" width="161" height="30" as="geometry">
            <mxRectangle width="161" height="30" as="alternateBounds" />
          </mxGeometry>
        </mxCell>
        <mxCell id="cGZUAVI1Q5oGUs3ta00O-1077" style="shape=partialRectangle;collapsible=0;dropTarget=0;pointerEvents=0;fillColor=none;points=[[0,0.5],[1,0.5]];portConstraint=eastwest;top=0;left=0;right=0;bottom=0;" vertex="1" parent="cGZUAVI1Q5oGUs3ta00O-1067">
          <mxGeometry y="90" width="191" height="30" as="geometry" />
        </mxCell>
        <mxCell id="cGZUAVI1Q5oGUs3ta00O-1078" value="FK" style="shape=partialRectangle;overflow=hidden;connectable=0;fillColor=none;top=0;left=0;bottom=0;right=0;" vertex="1" parent="cGZUAVI1Q5oGUs3ta00O-1077">
          <mxGeometry width="30" height="30" as="geometry">
            <mxRectangle width="30" height="30" as="alternateBounds" />
          </mxGeometry>
        </mxCell>
        <mxCell id="cGZUAVI1Q5oGUs3ta00O-1079" value="role INT" style="shape=partialRectangle;overflow=hidden;connectable=0;fillColor=none;top=0;left=0;bottom=0;right=0;align=left;spacingLeft=6;" vertex="1" parent="cGZUAVI1Q5oGUs3ta00O-1077">
          <mxGeometry x="30" width="161" height="30" as="geometry">
            <mxRectangle width="161" height="30" as="alternateBounds" />
          </mxGeometry>
        </mxCell>
        <mxCell id="cGZUAVI1Q5oGUs3ta00O-1080" value="Settings" style="shape=table;startSize=30;container=1;collapsible=1;childLayout=tableLayout;fixedRows=1;rowLines=0;fontStyle=1;align=center;resizeLast=1;fillColor=#fff2cc;strokeColor=#d6b656;" vertex="1" parent="1">
          <mxGeometry x="340" y="1985" width="245" height="120" as="geometry" />
        </mxCell>
        <mxCell id="cGZUAVI1Q5oGUs3ta00O-1081" value="" style="shape=partialRectangle;collapsible=0;dropTarget=0;pointerEvents=0;fillColor=none;points=[[0,0.5],[1,0.5]];portConstraint=eastwest;top=0;left=0;right=0;bottom=0;" vertex="1" parent="cGZUAVI1Q5oGUs3ta00O-1080">
          <mxGeometry y="30" width="245" height="30" as="geometry" />
        </mxCell>
        <mxCell id="cGZUAVI1Q5oGUs3ta00O-1082" value="PK" style="shape=partialRectangle;overflow=hidden;connectable=0;fillColor=none;top=0;left=0;bottom=0;right=0;fontStyle=1" vertex="1" parent="cGZUAVI1Q5oGUs3ta00O-1081">
          <mxGeometry width="45" height="30" as="geometry">
            <mxRectangle width="45" height="30" as="alternateBounds" />
          </mxGeometry>
        </mxCell>
        <mxCell id="cGZUAVI1Q5oGUs3ta00O-1083" value="setting_id INT" style="shape=partialRectangle;overflow=hidden;connectable=0;fillColor=none;top=0;left=0;bottom=0;right=0;align=left;spacingLeft=6;fontStyle=1" vertex="1" parent="cGZUAVI1Q5oGUs3ta00O-1081">
          <mxGeometry x="45" width="200" height="30" as="geometry">
            <mxRectangle width="200" height="30" as="alternateBounds" />
          </mxGeometry>
        </mxCell>
        <mxCell id="cGZUAVI1Q5oGUs3ta00O-1084" style="shape=partialRectangle;collapsible=0;dropTarget=0;pointerEvents=0;fillColor=none;points=[[0,0.5],[1,0.5]];portConstraint=eastwest;top=0;left=0;right=0;bottom=0;" vertex="1" parent="cGZUAVI1Q5oGUs3ta00O-1080">
          <mxGeometry y="60" width="245" height="30" as="geometry" />
        </mxCell>
        <mxCell id="cGZUAVI1Q5oGUs3ta00O-1085" style="shape=partialRectangle;overflow=hidden;connectable=0;fillColor=none;top=0;left=0;bottom=0;right=0;" vertex="1" parent="cGZUAVI1Q5oGUs3ta00O-1084">
          <mxGeometry width="45" height="30" as="geometry">
            <mxRectangle width="45" height="30" as="alternateBounds" />
          </mxGeometry>
        </mxCell>
        <mxCell id="cGZUAVI1Q5oGUs3ta00O-1086" value="setting_nameÂ Â VARCHAR(255)" style="shape=partialRectangle;overflow=hidden;connectable=0;fillColor=none;top=0;left=0;bottom=0;right=0;align=left;spacingLeft=6;" vertex="1" parent="cGZUAVI1Q5oGUs3ta00O-1084">
          <mxGeometry x="45" width="200" height="30" as="geometry">
            <mxRectangle width="200" height="30" as="alternateBounds" />
          </mxGeometry>
        </mxCell>
        <mxCell id="cGZUAVI1Q5oGUs3ta00O-1087" style="shape=partialRectangle;collapsible=0;dropTarget=0;pointerEvents=0;fillColor=none;points=[[0,0.5],[1,0.5]];portConstraint=eastwest;top=0;left=0;right=0;bottom=0;" vertex="1" parent="cGZUAVI1Q5oGUs3ta00O-1080">
          <mxGeometry y="90" width="245" height="30" as="geometry" />
        </mxCell>
        <mxCell id="cGZUAVI1Q5oGUs3ta00O-1088" style="shape=partialRectangle;overflow=hidden;connectable=0;fillColor=none;top=0;left=0;bottom=0;right=0;" vertex="1" parent="cGZUAVI1Q5oGUs3ta00O-1087">
          <mxGeometry width="45" height="30" as="geometry">
            <mxRectangle width="45" height="30" as="alternateBounds" />
          </mxGeometry>
        </mxCell>
        <mxCell id="cGZUAVI1Q5oGUs3ta00O-1089" value="setting_value INT" style="shape=partialRectangle;overflow=hidden;connectable=0;fillColor=none;top=0;left=0;bottom=0;right=0;align=left;spacingLeft=6;" vertex="1" parent="cGZUAVI1Q5oGUs3ta00O-1087">
          <mxGeometry x="45" width="200" height="30" as="geometry">
            <mxRectangle width="200" height="30" as="alternateBounds" />
          </mxGeometry>
        </mxCell>
        <mxCell id="cGZUAVI1Q5oGUs3ta00O-1090" value="Answers" style="shape=table;startSize=30;container=1;collapsible=1;childLayout=tableLayout;fixedRows=1;rowLines=0;fontStyle=1;align=center;resizeLast=1;fillColor=#fff2cc;strokeColor=#d6b656;" vertex="1" parent="1">
          <mxGeometry x="307.0023797607421" y="1801.9972595214845" width="200" height="150" as="geometry" />
        </mxCell>
        <mxCell id="cGZUAVI1Q5oGUs3ta00O-1091" value="" style="shape=partialRectangle;collapsible=0;dropTarget=0;pointerEvents=0;fillColor=none;points=[[0,0.5],[1,0.5]];portConstraint=eastwest;top=0;left=0;right=0;bottom=0;" vertex="1" parent="cGZUAVI1Q5oGUs3ta00O-1090">
          <mxGeometry y="30" width="200" height="30" as="geometry" />
        </mxCell>
        <mxCell id="cGZUAVI1Q5oGUs3ta00O-1092" value="PK" style="shape=partialRectangle;overflow=hidden;connectable=0;fillColor=none;top=0;left=0;bottom=0;right=0;fontStyle=1" vertex="1" parent="cGZUAVI1Q5oGUs3ta00O-1091">
          <mxGeometry width="34.44538286481588" height="30" as="geometry">
            <mxRectangle width="34.44538286481588" height="30" as="alternateBounds" />
          </mxGeometry>
        </mxCell>
        <mxCell id="cGZUAVI1Q5oGUs3ta00O-1093" value="answer_id INT" style="shape=partialRectangle;overflow=hidden;connectable=0;fillColor=none;top=0;left=0;bottom=0;right=0;align=left;spacingLeft=6;fontStyle=1" vertex="1" parent="cGZUAVI1Q5oGUs3ta00O-1091">
          <mxGeometry x="34.44538286481588" width="165.55461713518412" height="30" as="geometry">
            <mxRectangle width="165.55461713518412" height="30" as="alternateBounds" />
          </mxGeometry>
        </mxCell>
        <mxCell id="cGZUAVI1Q5oGUs3ta00O-1094" style="shape=partialRectangle;collapsible=0;dropTarget=0;pointerEvents=0;fillColor=none;points=[[0,0.5],[1,0.5]];portConstraint=eastwest;top=0;left=0;right=0;bottom=0;" vertex="1" parent="cGZUAVI1Q5oGUs3ta00O-1090">
          <mxGeometry y="60" width="200" height="30" as="geometry" />
        </mxCell>
        <mxCell id="cGZUAVI1Q5oGUs3ta00O-1095" value="FK" style="shape=partialRectangle;overflow=hidden;connectable=0;fillColor=none;top=0;left=0;bottom=0;right=0;" vertex="1" parent="cGZUAVI1Q5oGUs3ta00O-1094">
          <mxGeometry width="34.44538286481588" height="30" as="geometry">
            <mxRectangle width="34.44538286481588" height="30" as="alternateBounds" />
          </mxGeometry>
        </mxCell>
        <mxCell id="cGZUAVI1Q5oGUs3ta00O-1096" value="question_id INT" style="shape=partialRectangle;overflow=hidden;connectable=0;fillColor=none;top=0;left=0;bottom=0;right=0;align=left;spacingLeft=6;" vertex="1" parent="cGZUAVI1Q5oGUs3ta00O-1094">
          <mxGeometry x="34.44538286481588" width="165.55461713518412" height="30" as="geometry">
            <mxRectangle width="165.55461713518412" height="30" as="alternateBounds" />
          </mxGeometry>
        </mxCell>
        <mxCell id="cGZUAVI1Q5oGUs3ta00O-1097" style="shape=partialRectangle;collapsible=0;dropTarget=0;pointerEvents=0;fillColor=none;points=[[0,0.5],[1,0.5]];portConstraint=eastwest;top=0;left=0;right=0;bottom=0;" vertex="1" parent="cGZUAVI1Q5oGUs3ta00O-1090">
          <mxGeometry y="90" width="200" height="30" as="geometry" />
        </mxCell>
        <mxCell id="cGZUAVI1Q5oGUs3ta00O-1098" value="" style="shape=partialRectangle;overflow=hidden;connectable=0;fillColor=none;top=0;left=0;bottom=0;right=0;" vertex="1" parent="cGZUAVI1Q5oGUs3ta00O-1097">
          <mxGeometry width="34.44538286481588" height="30" as="geometry">
            <mxRectangle width="34.44538286481588" height="30" as="alternateBounds" />
          </mxGeometry>
        </mxCell>
        <mxCell id="cGZUAVI1Q5oGUs3ta00O-1099" value="answer_text INT" style="shape=partialRectangle;overflow=hidden;connectable=0;fillColor=none;top=0;left=0;bottom=0;right=0;align=left;spacingLeft=6;" vertex="1" parent="cGZUAVI1Q5oGUs3ta00O-1097">
          <mxGeometry x="34.44538286481588" width="165.55461713518412" height="30" as="geometry">
            <mxRectangle width="165.55461713518412" height="30" as="alternateBounds" />
          </mxGeometry>
        </mxCell>
        <mxCell id="cGZUAVI1Q5oGUs3ta00O-1100" style="shape=partialRectangle;collapsible=0;dropTarget=0;pointerEvents=0;fillColor=none;points=[[0,0.5],[1,0.5]];portConstraint=eastwest;top=0;left=0;right=0;bottom=0;" vertex="1" parent="cGZUAVI1Q5oGUs3ta00O-1090">
          <mxGeometry y="120" width="200" height="30" as="geometry" />
        </mxCell>
        <mxCell id="cGZUAVI1Q5oGUs3ta00O-1101" value="" style="shape=partialRectangle;overflow=hidden;connectable=0;fillColor=none;top=0;left=0;bottom=0;right=0;" vertex="1" parent="cGZUAVI1Q5oGUs3ta00O-1100">
          <mxGeometry width="34.44538286481588" height="30" as="geometry">
            <mxRectangle width="34.44538286481588" height="30" as="alternateBounds" />
          </mxGeometry>
        </mxCell>
        <mxCell id="cGZUAVI1Q5oGUs3ta00O-1102" value="is_correct BOOLEAN" style="shape=partialRectangle;overflow=hidden;connectable=0;fillColor=none;top=0;left=0;bottom=0;right=0;align=left;spacingLeft=6;" vertex="1" parent="cGZUAVI1Q5oGUs3ta00O-1100">
          <mxGeometry x="34.44538286481588" width="165.55461713518412" height="30" as="geometry">
            <mxRectangle width="165.55461713518412" height="30" as="alternateBounds" />
          </mxGeometry>
        </mxCell>
        <mxCell id="cGZUAVI1Q5oGUs3ta00O-1103" value="Tests" style="shape=table;startSize=30;container=1;collapsible=1;childLayout=tableLayout;fixedRows=1;rowLines=0;fontStyle=1;align=center;resizeLast=1;fillColor=#fff2cc;strokeColor=#d6b656;" vertex="1" parent="1">
          <mxGeometry x="618" y="1579" width="273.75" height="180" as="geometry" />
        </mxCell>
        <mxCell id="cGZUAVI1Q5oGUs3ta00O-1104" value="" style="shape=partialRectangle;collapsible=0;dropTarget=0;pointerEvents=0;fillColor=none;points=[[0,0.5],[1,0.5]];portConstraint=eastwest;top=0;left=0;right=0;bottom=0;" vertex="1" parent="cGZUAVI1Q5oGUs3ta00O-1103">
          <mxGeometry y="30" width="273.75" height="30" as="geometry" />
        </mxCell>
        <mxCell id="cGZUAVI1Q5oGUs3ta00O-1105" value="PK" style="shape=partialRectangle;overflow=hidden;connectable=0;fillColor=none;top=0;left=0;bottom=0;right=0;fontStyle=1" vertex="1" parent="cGZUAVI1Q5oGUs3ta00O-1104">
          <mxGeometry width="45" height="30" as="geometry">
            <mxRectangle width="45" height="30" as="alternateBounds" />
          </mxGeometry>
        </mxCell>
        <mxCell id="cGZUAVI1Q5oGUs3ta00O-1106" value="test_id INT" style="shape=partialRectangle;overflow=hidden;connectable=0;fillColor=none;top=0;left=0;bottom=0;right=0;align=left;spacingLeft=6;fontStyle=1" vertex="1" parent="cGZUAVI1Q5oGUs3ta00O-1104">
          <mxGeometry x="45" width="228.75" height="30" as="geometry">
            <mxRectangle width="228.75" height="30" as="alternateBounds" />
          </mxGeometry>
        </mxCell>
        <mxCell id="cGZUAVI1Q5oGUs3ta00O-1107" style="shape=partialRectangle;collapsible=0;dropTarget=0;pointerEvents=0;fillColor=none;points=[[0,0.5],[1,0.5]];portConstraint=eastwest;top=0;left=0;right=0;bottom=0;" vertex="1" parent="cGZUAVI1Q5oGUs3ta00O-1103">
          <mxGeometry y="60" width="273.75" height="30" as="geometry" />
        </mxCell>
        <mxCell id="cGZUAVI1Q5oGUs3ta00O-1108" value="" style="shape=partialRectangle;overflow=hidden;connectable=0;fillColor=none;top=0;left=0;bottom=0;right=0;" vertex="1" parent="cGZUAVI1Q5oGUs3ta00O-1107">
          <mxGeometry width="45" height="30" as="geometry">
            <mxRectangle width="45" height="30" as="alternateBounds" />
          </mxGeometry>
        </mxCell>
        <mxCell id="cGZUAVI1Q5oGUs3ta00O-1109" value="test_nameÂ VARCHAR(255)" style="shape=partialRectangle;overflow=hidden;connectable=0;fillColor=none;top=0;left=0;bottom=0;right=0;align=left;spacingLeft=6;" vertex="1" parent="cGZUAVI1Q5oGUs3ta00O-1107">
          <mxGeometry x="45" width="228.75" height="30" as="geometry">
            <mxRectangle width="228.75" height="30" as="alternateBounds" />
          </mxGeometry>
        </mxCell>
        <mxCell id="cGZUAVI1Q5oGUs3ta00O-1110" style="shape=partialRectangle;collapsible=0;dropTarget=0;pointerEvents=0;fillColor=none;points=[[0,0.5],[1,0.5]];portConstraint=eastwest;top=0;left=0;right=0;bottom=0;" vertex="1" parent="cGZUAVI1Q5oGUs3ta00O-1103">
          <mxGeometry y="90" width="273.75" height="30" as="geometry" />
        </mxCell>
        <mxCell id="cGZUAVI1Q5oGUs3ta00O-1111" value="FK" style="shape=partialRectangle;overflow=hidden;connectable=0;fillColor=none;top=0;left=0;bottom=0;right=0;" vertex="1" parent="cGZUAVI1Q5oGUs3ta00O-1110">
          <mxGeometry width="45" height="30" as="geometry">
            <mxRectangle width="45" height="30" as="alternateBounds" />
          </mxGeometry>
        </mxCell>
        <mxCell id="cGZUAVI1Q5oGUs3ta00O-1112" value="creator INT" style="shape=partialRectangle;overflow=hidden;connectable=0;fillColor=none;top=0;left=0;bottom=0;right=0;align=left;spacingLeft=6;" vertex="1" parent="cGZUAVI1Q5oGUs3ta00O-1110">
          <mxGeometry x="45" width="228.75" height="30" as="geometry">
            <mxRectangle width="228.75" height="30" as="alternateBounds" />
          </mxGeometry>
        </mxCell>
        <mxCell id="cGZUAVI1Q5oGUs3ta00O-1113" style="shape=partialRectangle;collapsible=0;dropTarget=0;pointerEvents=0;fillColor=none;points=[[0,0.5],[1,0.5]];portConstraint=eastwest;top=0;left=0;right=0;bottom=0;" vertex="1" parent="cGZUAVI1Q5oGUs3ta00O-1103">
          <mxGeometry y="120" width="273.75" height="30" as="geometry" />
        </mxCell>
        <mxCell id="cGZUAVI1Q5oGUs3ta00O-1114" style="shape=partialRectangle;overflow=hidden;connectable=0;fillColor=none;top=0;left=0;bottom=0;right=0;" vertex="1" parent="cGZUAVI1Q5oGUs3ta00O-1113">
          <mxGeometry width="45" height="30" as="geometry">
            <mxRectangle width="45" height="30" as="alternateBounds" />
          </mxGeometry>
        </mxCell>
        <mxCell id="cGZUAVI1Q5oGUs3ta00O-1115" value="creation_date DATE" style="shape=partialRectangle;overflow=hidden;connectable=0;fillColor=none;top=0;left=0;bottom=0;right=0;align=left;spacingLeft=6;" vertex="1" parent="cGZUAVI1Q5oGUs3ta00O-1113">
          <mxGeometry x="45" width="228.75" height="30" as="geometry">
            <mxRectangle width="228.75" height="30" as="alternateBounds" />
          </mxGeometry>
        </mxCell>
        <mxCell id="cGZUAVI1Q5oGUs3ta00O-1116" style="shape=partialRectangle;collapsible=0;dropTarget=0;pointerEvents=0;fillColor=none;points=[[0,0.5],[1,0.5]];portConstraint=eastwest;top=0;left=0;right=0;bottom=0;" vertex="1" parent="cGZUAVI1Q5oGUs3ta00O-1103">
          <mxGeometry y="150" width="273.75" height="30" as="geometry" />
        </mxCell>
        <mxCell id="cGZUAVI1Q5oGUs3ta00O-1117" style="shape=partialRectangle;overflow=hidden;connectable=0;fillColor=none;top=0;left=0;bottom=0;right=0;" vertex="1" parent="cGZUAVI1Q5oGUs3ta00O-1116">
          <mxGeometry width="45" height="30" as="geometry">
            <mxRectangle width="45" height="30" as="alternateBounds" />
          </mxGeometry>
        </mxCell>
        <mxCell id="cGZUAVI1Q5oGUs3ta00O-1118" value="is_actiive BOOLEAN" style="shape=partialRectangle;overflow=hidden;connectable=0;fillColor=none;top=0;left=0;bottom=0;right=0;align=left;spacingLeft=6;" vertex="1" parent="cGZUAVI1Q5oGUs3ta00O-1116">
          <mxGeometry x="45" width="228.75" height="30" as="geometry">
            <mxRectangle width="228.75" height="30" as="alternateBounds" />
          </mxGeometry>
        </mxCell>
        <mxCell id="cGZUAVI1Q5oGUs3ta00O-1119" value="Questions" style="shape=table;startSize=30;container=1;collapsible=1;childLayout=tableLayout;fixedRows=1;rowLines=0;fontStyle=1;align=center;resizeLast=1;fillColor=#fff2cc;strokeColor=#d6b656;" vertex="1" parent="1">
          <mxGeometry x="22" y="1799" width="218" height="150" as="geometry" />
        </mxCell>
        <mxCell id="cGZUAVI1Q5oGUs3ta00O-1120" value="" style="shape=partialRectangle;collapsible=0;dropTarget=0;pointerEvents=0;fillColor=none;points=[[0,0.5],[1,0.5]];portConstraint=eastwest;top=0;left=0;right=0;bottom=0;" vertex="1" parent="cGZUAVI1Q5oGUs3ta00O-1119">
          <mxGeometry y="30" width="218" height="30" as="geometry" />
        </mxCell>
        <mxCell id="cGZUAVI1Q5oGUs3ta00O-1121" value="PK" style="shape=partialRectangle;overflow=hidden;connectable=0;fillColor=none;top=0;left=0;bottom=0;right=0;fontStyle=1" vertex="1" parent="cGZUAVI1Q5oGUs3ta00O-1120">
          <mxGeometry width="35.617068336123566" height="30" as="geometry">
            <mxRectangle width="35.617068336123566" height="30" as="alternateBounds" />
          </mxGeometry>
        </mxCell>
        <mxCell id="cGZUAVI1Q5oGUs3ta00O-1122" value="question_id INT" style="shape=partialRectangle;overflow=hidden;connectable=0;fillColor=none;top=0;left=0;bottom=0;right=0;align=left;spacingLeft=6;fontStyle=1" vertex="1" parent="cGZUAVI1Q5oGUs3ta00O-1120">
          <mxGeometry x="35.617068336123566" width="182.38293166387643" height="30" as="geometry">
            <mxRectangle width="182.38293166387643" height="30" as="alternateBounds" />
          </mxGeometry>
        </mxCell>
        <mxCell id="cGZUAVI1Q5oGUs3ta00O-1123" style="shape=partialRectangle;collapsible=0;dropTarget=0;pointerEvents=0;fillColor=none;points=[[0,0.5],[1,0.5]];portConstraint=eastwest;top=0;left=0;right=0;bottom=0;" vertex="1" parent="cGZUAVI1Q5oGUs3ta00O-1119">
          <mxGeometry y="60" width="218" height="30" as="geometry" />
        </mxCell>
        <mxCell id="cGZUAVI1Q5oGUs3ta00O-1124" value="FK" style="shape=partialRectangle;overflow=hidden;connectable=0;fillColor=none;top=0;left=0;bottom=0;right=0;" vertex="1" parent="cGZUAVI1Q5oGUs3ta00O-1123">
          <mxGeometry width="35.617068336123566" height="30" as="geometry">
            <mxRectangle width="35.617068336123566" height="30" as="alternateBounds" />
          </mxGeometry>
        </mxCell>
        <mxCell id="cGZUAVI1Q5oGUs3ta00O-1125" value="test_id INT" style="shape=partialRectangle;overflow=hidden;connectable=0;fillColor=none;top=0;left=0;bottom=0;right=0;align=left;spacingLeft=6;" vertex="1" parent="cGZUAVI1Q5oGUs3ta00O-1123">
          <mxGeometry x="35.617068336123566" width="182.38293166387643" height="30" as="geometry">
            <mxRectangle width="182.38293166387643" height="30" as="alternateBounds" />
          </mxGeometry>
        </mxCell>
        <mxCell id="cGZUAVI1Q5oGUs3ta00O-1126" style="shape=partialRectangle;collapsible=0;dropTarget=0;pointerEvents=0;fillColor=none;points=[[0,0.5],[1,0.5]];portConstraint=eastwest;top=0;left=0;right=0;bottom=0;" vertex="1" parent="cGZUAVI1Q5oGUs3ta00O-1119">
          <mxGeometry y="90" width="218" height="30" as="geometry" />
        </mxCell>
        <mxCell id="cGZUAVI1Q5oGUs3ta00O-1127" style="shape=partialRectangle;overflow=hidden;connectable=0;fillColor=none;top=0;left=0;bottom=0;right=0;" vertex="1" parent="cGZUAVI1Q5oGUs3ta00O-1126">
          <mxGeometry width="35.617068336123566" height="30" as="geometry">
            <mxRectangle width="35.617068336123566" height="30" as="alternateBounds" />
          </mxGeometry>
        </mxCell>
        <mxCell id="cGZUAVI1Q5oGUs3ta00O-1128" value="question_textÂ Â VARCHAR(255)" style="shape=partialRectangle;overflow=hidden;connectable=0;fillColor=none;top=0;left=0;bottom=0;right=0;align=left;spacingLeft=6;" vertex="1" parent="cGZUAVI1Q5oGUs3ta00O-1126">
          <mxGeometry x="35.617068336123566" width="182.38293166387643" height="30" as="geometry">
            <mxRectangle width="182.38293166387643" height="30" as="alternateBounds" />
          </mxGeometry>
        </mxCell>
        <mxCell id="cGZUAVI1Q5oGUs3ta00O-1129" style="shape=partialRectangle;collapsible=0;dropTarget=0;pointerEvents=0;fillColor=none;points=[[0,0.5],[1,0.5]];portConstraint=eastwest;top=0;left=0;right=0;bottom=0;" vertex="1" parent="cGZUAVI1Q5oGUs3ta00O-1119">
          <mxGeometry y="120" width="218" height="30" as="geometry" />
        </mxCell>
        <mxCell id="cGZUAVI1Q5oGUs3ta00O-1130" style="shape=partialRectangle;overflow=hidden;connectable=0;fillColor=none;top=0;left=0;bottom=0;right=0;" vertex="1" parent="cGZUAVI1Q5oGUs3ta00O-1129">
          <mxGeometry width="35.617068336123566" height="30" as="geometry">
            <mxRectangle width="35.617068336123566" height="30" as="alternateBounds" />
          </mxGeometry>
        </mxCell>
        <mxCell id="cGZUAVI1Q5oGUs3ta00O-1131" value="question_typeÂ Â VARCHAR(255)" style="shape=partialRectangle;overflow=hidden;connectable=0;fillColor=none;top=0;left=0;bottom=0;right=0;align=left;spacingLeft=6;" vertex="1" parent="cGZUAVI1Q5oGUs3ta00O-1129">
          <mxGeometry x="35.617068336123566" width="182.38293166387643" height="30" as="geometry">
            <mxRectangle width="182.38293166387643" height="30" as="alternateBounds" />
          </mxGeometry>
        </mxCell>
        <mxCell id="cGZUAVI1Q5oGUs3ta00O-1132" value="Roles" style="shape=table;startSize=30;container=1;collapsible=1;childLayout=tableLayout;fixedRows=1;rowLines=0;fontStyle=1;align=center;resizeLast=1;fillColor=#fff2cc;strokeColor=#d6b656;" vertex="1" parent="1">
          <mxGeometry x="311" y="1579" width="207" height="90" as="geometry" />
        </mxCell>
        <mxCell id="cGZUAVI1Q5oGUs3ta00O-1133" value="" style="shape=partialRectangle;collapsible=0;dropTarget=0;pointerEvents=0;fillColor=none;points=[[0,0.5],[1,0.5]];portConstraint=eastwest;top=0;left=0;right=0;bottom=0;" vertex="1" parent="cGZUAVI1Q5oGUs3ta00O-1132">
          <mxGeometry y="30" width="207" height="30" as="geometry" />
        </mxCell>
        <mxCell id="cGZUAVI1Q5oGUs3ta00O-1134" value="PK" style="shape=partialRectangle;overflow=hidden;connectable=0;fillColor=none;top=0;left=0;bottom=0;right=0;fontStyle=1" vertex="1" parent="cGZUAVI1Q5oGUs3ta00O-1133">
          <mxGeometry width="37.62234642392127" height="30" as="geometry">
            <mxRectangle width="37.62234642392127" height="30" as="alternateBounds" />
          </mxGeometry>
        </mxCell>
        <mxCell id="cGZUAVI1Q5oGUs3ta00O-1135" value="role_id INT" style="shape=partialRectangle;overflow=hidden;connectable=0;fillColor=none;top=0;left=0;bottom=0;right=0;align=left;spacingLeft=6;fontStyle=1" vertex="1" parent="cGZUAVI1Q5oGUs3ta00O-1133">
          <mxGeometry x="37.62234642392127" width="169.37765357607873" height="30" as="geometry">
            <mxRectangle width="169.37765357607873" height="30" as="alternateBounds" />
          </mxGeometry>
        </mxCell>
        <mxCell id="cGZUAVI1Q5oGUs3ta00O-1136" style="shape=partialRectangle;collapsible=0;dropTarget=0;pointerEvents=0;fillColor=none;points=[[0,0.5],[1,0.5]];portConstraint=eastwest;top=0;left=0;right=0;bottom=0;" vertex="1" parent="cGZUAVI1Q5oGUs3ta00O-1132">
          <mxGeometry y="60" width="207" height="30" as="geometry" />
        </mxCell>
        <mxCell id="cGZUAVI1Q5oGUs3ta00O-1137" value="" style="shape=partialRectangle;overflow=hidden;connectable=0;fillColor=none;top=0;left=0;bottom=0;right=0;" vertex="1" parent="cGZUAVI1Q5oGUs3ta00O-1136">
          <mxGeometry width="37.62234642392127" height="30" as="geometry">
            <mxRectangle width="37.62234642392127" height="30" as="alternateBounds" />
          </mxGeometry>
        </mxCell>
        <mxCell id="cGZUAVI1Q5oGUs3ta00O-1138" value="role_nameÂ VARCHAR(255)" style="shape=partialRectangle;overflow=hidden;connectable=0;fillColor=none;top=0;left=0;bottom=0;right=0;align=left;spacingLeft=6;" vertex="1" parent="cGZUAVI1Q5oGUs3ta00O-1136">
          <mxGeometry x="37.62234642392127" width="169.37765357607873" height="30" as="geometry">
            <mxRectangle width="169.37765357607873" height="30" as="alternateBounds" />
          </mxGeometry>
        </mxCell>
        <mxCell id="cGZUAVI1Q5oGUs3ta00O-1139" value="Results" style="shape=table;startSize=30;container=1;collapsible=1;childLayout=tableLayout;fixedRows=1;rowLines=0;fontStyle=1;align=center;resizeLast=1;fillColor=#fff2cc;strokeColor=#d6b656;" vertex="1" parent="1">
          <mxGeometry x="657.75" y="1799" width="236" height="180" as="geometry" />
        </mxCell>
        <mxCell id="cGZUAVI1Q5oGUs3ta00O-1140" value="" style="shape=partialRectangle;collapsible=0;dropTarget=0;pointerEvents=0;fillColor=none;points=[[0,0.5],[1,0.5]];portConstraint=eastwest;top=0;left=0;right=0;bottom=0;" vertex="1" parent="cGZUAVI1Q5oGUs3ta00O-1139">
          <mxGeometry y="30" width="236" height="30" as="geometry" />
        </mxCell>
        <mxCell id="cGZUAVI1Q5oGUs3ta00O-1141" value="PK" style="shape=partialRectangle;overflow=hidden;connectable=0;fillColor=none;top=0;left=0;bottom=0;right=0;fontStyle=1" vertex="1" parent="cGZUAVI1Q5oGUs3ta00O-1140">
          <mxGeometry width="45" height="30" as="geometry">
            <mxRectangle width="45" height="30" as="alternateBounds" />
          </mxGeometry>
        </mxCell>
        <mxCell id="cGZUAVI1Q5oGUs3ta00O-1142" value="result_id INT" style="shape=partialRectangle;overflow=hidden;connectable=0;fillColor=none;top=0;left=0;bottom=0;right=0;align=left;spacingLeft=6;fontStyle=1" vertex="1" parent="cGZUAVI1Q5oGUs3ta00O-1140">
          <mxGeometry x="45" width="191" height="30" as="geometry">
            <mxRectangle width="191" height="30" as="alternateBounds" />
          </mxGeometry>
        </mxCell>
        <mxCell id="cGZUAVI1Q5oGUs3ta00O-1143" style="shape=partialRectangle;collapsible=0;dropTarget=0;pointerEvents=0;fillColor=none;points=[[0,0.5],[1,0.5]];portConstraint=eastwest;top=0;left=0;right=0;bottom=0;" vertex="1" parent="cGZUAVI1Q5oGUs3ta00O-1139">
          <mxGeometry y="60" width="236" height="30" as="geometry" />
        </mxCell>
        <mxCell id="cGZUAVI1Q5oGUs3ta00O-1144" value="FK" style="shape=partialRectangle;overflow=hidden;connectable=0;fillColor=none;top=0;left=0;bottom=0;right=0;" vertex="1" parent="cGZUAVI1Q5oGUs3ta00O-1143">
          <mxGeometry width="45" height="30" as="geometry">
            <mxRectangle width="45" height="30" as="alternateBounds" />
          </mxGeometry>
        </mxCell>
        <mxCell id="cGZUAVI1Q5oGUs3ta00O-1145" value="user_id INT" style="shape=partialRectangle;overflow=hidden;connectable=0;fillColor=none;top=0;left=0;bottom=0;right=0;align=left;spacingLeft=6;" vertex="1" parent="cGZUAVI1Q5oGUs3ta00O-1143">
          <mxGeometry x="45" width="191" height="30" as="geometry">
            <mxRectangle width="191" height="30" as="alternateBounds" />
          </mxGeometry>
        </mxCell>
        <mxCell id="cGZUAVI1Q5oGUs3ta00O-1146" style="shape=partialRectangle;collapsible=0;dropTarget=0;pointerEvents=0;fillColor=none;points=[[0,0.5],[1,0.5]];portConstraint=eastwest;top=0;left=0;right=0;bottom=0;" vertex="1" parent="cGZUAVI1Q5oGUs3ta00O-1139">
          <mxGeometry y="90" width="236" height="30" as="geometry" />
        </mxCell>
        <mxCell id="cGZUAVI1Q5oGUs3ta00O-1147" value="FK" style="shape=partialRectangle;overflow=hidden;connectable=0;fillColor=none;top=0;left=0;bottom=0;right=0;" vertex="1" parent="cGZUAVI1Q5oGUs3ta00O-1146">
          <mxGeometry width="45" height="30" as="geometry">
            <mxRectangle width="45" height="30" as="alternateBounds" />
          </mxGeometry>
        </mxCell>
        <mxCell id="cGZUAVI1Q5oGUs3ta00O-1148" value="test_id INT" style="shape=partialRectangle;overflow=hidden;connectable=0;fillColor=none;top=0;left=0;bottom=0;right=0;align=left;spacingLeft=6;" vertex="1" parent="cGZUAVI1Q5oGUs3ta00O-1146">
          <mxGeometry x="45" width="191" height="30" as="geometry">
            <mxRectangle width="191" height="30" as="alternateBounds" />
          </mxGeometry>
        </mxCell>
        <mxCell id="cGZUAVI1Q5oGUs3ta00O-1149" style="shape=partialRectangle;collapsible=0;dropTarget=0;pointerEvents=0;fillColor=none;points=[[0,0.5],[1,0.5]];portConstraint=eastwest;top=0;left=0;right=0;bottom=0;" vertex="1" parent="cGZUAVI1Q5oGUs3ta00O-1139">
          <mxGeometry y="120" width="236" height="30" as="geometry" />
        </mxCell>
        <mxCell id="cGZUAVI1Q5oGUs3ta00O-1150" value="" style="shape=partialRectangle;overflow=hidden;connectable=0;fillColor=none;top=0;left=0;bottom=0;right=0;" vertex="1" parent="cGZUAVI1Q5oGUs3ta00O-1149">
          <mxGeometry width="45" height="30" as="geometry">
            <mxRectangle width="45" height="30" as="alternateBounds" />
          </mxGeometry>
        </mxCell>
        <mxCell id="cGZUAVI1Q5oGUs3ta00O-1151" value="score INT" style="shape=partialRectangle;overflow=hidden;connectable=0;fillColor=none;top=0;left=0;bottom=0;right=0;align=left;spacingLeft=6;" vertex="1" parent="cGZUAVI1Q5oGUs3ta00O-1149">
          <mxGeometry x="45" width="191" height="30" as="geometry">
            <mxRectangle width="191" height="30" as="alternateBounds" />
          </mxGeometry>
        </mxCell>
        <mxCell id="cGZUAVI1Q5oGUs3ta00O-1152" style="shape=partialRectangle;collapsible=0;dropTarget=0;pointerEvents=0;fillColor=none;points=[[0,0.5],[1,0.5]];portConstraint=eastwest;top=0;left=0;right=0;bottom=0;" vertex="1" parent="cGZUAVI1Q5oGUs3ta00O-1139">
          <mxGeometry y="150" width="236" height="30" as="geometry" />
        </mxCell>
        <mxCell id="cGZUAVI1Q5oGUs3ta00O-1153" style="shape=partialRectangle;overflow=hidden;connectable=0;fillColor=none;top=0;left=0;bottom=0;right=0;" vertex="1" parent="cGZUAVI1Q5oGUs3ta00O-1152">
          <mxGeometry width="45" height="30" as="geometry">
            <mxRectangle width="45" height="30" as="alternateBounds" />
          </mxGeometry>
        </mxCell>
        <mxCell id="cGZUAVI1Q5oGUs3ta00O-1154" value="date_taken DATE" style="shape=partialRectangle;overflow=hidden;connectable=0;fillColor=none;top=0;left=0;bottom=0;right=0;align=left;spacingLeft=6;" vertex="1" parent="cGZUAVI1Q5oGUs3ta00O-1152">
          <mxGeometry x="45" width="191" height="30" as="geometry">
            <mxRectangle width="191" height="30" as="alternateBounds" />
          </mxGeometry>
        </mxCell>
        <mxCell id="cGZUAVI1Q5oGUs3ta00O-1156" value="" style="edgeStyle=orthogonalEdgeStyle;endArrow=ERzeroToMany;startArrow=ERone;endFill=1;startFill=0;rounded=0;" edge="1" source="cGZUAVI1Q5oGUs3ta00O-1133" target="cGZUAVI1Q5oGUs3ta00O-1077" parent="1">
          <mxGeometry width="100" height="100" relative="1" as="geometry">
            <mxPoint x="335.5023797607423" y="1623" as="sourcePoint" />
            <mxPoint x="253.0223797607423" y="1708.4072595214843" as="targetPoint" />
            <Array as="points">
              <mxPoint x="296" y="1624" />
              <mxPoint x="296" y="1714" />
              <mxPoint x="246" y="1714" />
              <mxPoint x="246" y="1684" />
            </Array>
          </mxGeometry>
        </mxCell>
        <mxCell id="cGZUAVI1Q5oGUs3ta00O-1157" value="" style="edgeStyle=orthogonalEdgeStyle;endArrow=ERzeroToMany;startArrow=ERone;endFill=1;startFill=0;rounded=0;" edge="1" target="cGZUAVI1Q5oGUs3ta00O-1143" parent="1">
          <mxGeometry width="100" height="100" relative="1" as="geometry">
            <mxPoint x="229.0023797607421" y="1624" as="sourcePoint" />
            <mxPoint x="239" y="1714" as="targetPoint" />
            <Array as="points">
              <mxPoint x="265" y="1624" />
              <mxPoint x="265" y="1692" />
              <mxPoint x="578" y="1692" />
              <mxPoint x="578" y="1874" />
            </Array>
          </mxGeometry>
        </mxCell>
        <mxCell id="cGZUAVI1Q5oGUs3ta00O-1158" value="" style="edgeStyle=orthogonalEdgeStyle;endArrow=ERzeroToMany;startArrow=ERone;endFill=1;startFill=0;rounded=0;" edge="1" source="cGZUAVI1Q5oGUs3ta00O-1104" target="cGZUAVI1Q5oGUs3ta00O-1123" parent="1">
          <mxGeometry width="100" height="100" relative="1" as="geometry">
            <mxPoint x="331" y="1644" as="sourcePoint" />
            <mxPoint x="249" y="1734" as="targetPoint" />
            <Array as="points">
              <mxPoint x="539" y="1624" />
              <mxPoint x="539" y="1734" />
              <mxPoint x="260" y="1734" />
              <mxPoint x="260" y="1874" />
            </Array>
          </mxGeometry>
        </mxCell>
        <mxCell id="cGZUAVI1Q5oGUs3ta00O-1159" value="" style="edgeStyle=orthogonalEdgeStyle;endArrow=ERzeroToMany;startArrow=ERone;endFill=1;startFill=0;rounded=0;" edge="1" source="cGZUAVI1Q5oGUs3ta00O-1104" target="cGZUAVI1Q5oGUs3ta00O-1146" parent="1">
          <mxGeometry width="100" height="100" relative="1" as="geometry">
            <mxPoint x="341" y="1654" as="sourcePoint" />
            <mxPoint x="259" y="1744" as="targetPoint" />
            <Array as="points">
              <mxPoint x="559" y="1624" />
              <mxPoint x="559" y="1904" />
            </Array>
          </mxGeometry>
        </mxCell>
        <mxCell id="cGZUAVI1Q5oGUs3ta00O-1160" value="" style="edgeStyle=orthogonalEdgeStyle;endArrow=ERzeroToMany;startArrow=ERone;endFill=1;startFill=0;rounded=0;" edge="1" source="cGZUAVI1Q5oGUs3ta00O-1120" target="cGZUAVI1Q5oGUs3ta00O-1094" parent="1">
          <mxGeometry width="100" height="100" relative="1" as="geometry">
            <mxPoint x="351" y="1664" as="sourcePoint" />
            <mxPoint x="269" y="1754" as="targetPoint" />
            <Array as="points">
              <mxPoint x="276" y="1844" />
              <mxPoint x="276" y="1874" />
            </Array>
          </mxGeometry>
        </mxCell>
        <mxCell id="cGZUAVI1Q5oGUs3ta00O-1161" value="" style="edgeStyle=orthogonalEdgeStyle;endArrow=ERzeroToMany;startArrow=ERone;endFill=1;startFill=0;rounded=0;" edge="1" source="cGZUAVI1Q5oGUs3ta00O-1068" target="cGZUAVI1Q5oGUs3ta00O-1110" parent="1">
          <mxGeometry width="100" height="100" relative="1" as="geometry">
            <mxPoint x="361" y="1674" as="sourcePoint" />
            <mxPoint x="279" y="1764" as="targetPoint" />
            <Array as="points">
              <mxPoint x="288" y="1624" />
              <mxPoint x="288" y="1684" />
            </Array>
          </mxGeometry>
        </mxCell>
        <mxCell id="cGZUAVI1Q5oGUs3ta00O-1162" value="Users" style="shape=table;startSize=30;container=1;collapsible=1;childLayout=tableLayout;fixedRows=1;rowLines=0;fontStyle=1;align=center;resizeLast=1;fillColor=#fff2cc;strokeColor=#d6b656;" vertex="1" parent="1">
          <mxGeometry x="34" y="888" width="191" height="121.5" as="geometry" />
        </mxCell>
        <mxCell id="cGZUAVI1Q5oGUs3ta00O-1163" style="shape=partialRectangle;collapsible=0;dropTarget=0;pointerEvents=0;fillColor=none;points=[[0,0.5],[1,0.5]];portConstraint=eastwest;top=0;left=0;right=0;bottom=0;" vertex="1" parent="cGZUAVI1Q5oGUs3ta00O-1162">
          <mxGeometry y="30" width="191" height="30" as="geometry" />
        </mxCell>
        <mxCell id="cGZUAVI1Q5oGUs3ta00O-1164" value="PK" style="shape=partialRectangle;overflow=hidden;connectable=0;fillColor=none;top=0;left=0;bottom=0;right=0;fontStyle=1" vertex="1" parent="cGZUAVI1Q5oGUs3ta00O-1163">
          <mxGeometry width="30" height="30" as="geometry">
            <mxRectangle width="30" height="30" as="alternateBounds" />
          </mxGeometry>
        </mxCell>
        <mxCell id="cGZUAVI1Q5oGUs3ta00O-1165" value="user_id NUMBER(10)" style="shape=partialRectangle;overflow=hidden;connectable=0;fillColor=none;top=0;left=0;bottom=0;right=0;align=left;spacingLeft=6;fontStyle=1" vertex="1" parent="cGZUAVI1Q5oGUs3ta00O-1163">
          <mxGeometry x="30" width="161" height="30" as="geometry">
            <mxRectangle width="161" height="30" as="alternateBounds" />
          </mxGeometry>
        </mxCell>
        <mxCell id="cGZUAVI1Q5oGUs3ta00O-1166" value="" style="shape=partialRectangle;collapsible=0;dropTarget=0;pointerEvents=0;fillColor=none;points=[[0,0.5],[1,0.5]];portConstraint=eastwest;top=0;left=0;right=0;bottom=0;" vertex="1" parent="cGZUAVI1Q5oGUs3ta00O-1162">
          <mxGeometry y="60" width="191" height="30" as="geometry" />
        </mxCell>
        <mxCell id="cGZUAVI1Q5oGUs3ta00O-1167" value="" style="shape=partialRectangle;overflow=hidden;connectable=0;fillColor=none;top=0;left=0;bottom=0;right=0;" vertex="1" parent="cGZUAVI1Q5oGUs3ta00O-1166">
          <mxGeometry width="30" height="30" as="geometry">
            <mxRectangle width="30" height="30" as="alternateBounds" />
          </mxGeometry>
        </mxCell>
        <mxCell id="cGZUAVI1Q5oGUs3ta00O-1168" value="username VARCHAR(255)" style="shape=partialRectangle;overflow=hidden;connectable=0;fillColor=none;top=0;left=0;bottom=0;right=0;align=left;spacingLeft=6;" vertex="1" parent="cGZUAVI1Q5oGUs3ta00O-1166">
          <mxGeometry x="30" width="161" height="30" as="geometry">
            <mxRectangle width="161" height="30" as="alternateBounds" />
          </mxGeometry>
        </mxCell>
        <mxCell id="cGZUAVI1Q5oGUs3ta00O-1172" style="shape=partialRectangle;collapsible=0;dropTarget=0;pointerEvents=0;fillColor=none;points=[[0,0.5],[1,0.5]];portConstraint=eastwest;top=0;left=0;right=0;bottom=0;" vertex="1" parent="cGZUAVI1Q5oGUs3ta00O-1162">
          <mxGeometry y="90" width="191" height="30" as="geometry" />
        </mxCell>
        <mxCell id="cGZUAVI1Q5oGUs3ta00O-1173" value="FK" style="shape=partialRectangle;overflow=hidden;connectable=0;fillColor=none;top=0;left=0;bottom=0;right=0;" vertex="1" parent="cGZUAVI1Q5oGUs3ta00O-1172">
          <mxGeometry width="30" height="30" as="geometry">
            <mxRectangle width="30" height="30" as="alternateBounds" />
          </mxGeometry>
        </mxCell>
        <mxCell id="cGZUAVI1Q5oGUs3ta00O-1174" value="roleÂ NUMBER(10)" style="shape=partialRectangle;overflow=hidden;connectable=0;fillColor=none;top=0;left=0;bottom=0;right=0;align=left;spacingLeft=6;fontStyle=0" vertex="1" parent="cGZUAVI1Q5oGUs3ta00O-1172">
          <mxGeometry x="30" width="161" height="30" as="geometry">
            <mxRectangle width="161" height="30" as="alternateBounds" />
          </mxGeometry>
        </mxCell>
        <mxCell id="cGZUAVI1Q5oGUs3ta00O-1175" value="Settings" style="shape=table;startSize=30;container=1;collapsible=1;childLayout=tableLayout;fixedRows=1;rowLines=0;fontStyle=1;align=center;resizeLast=1;fillColor=#fff2cc;strokeColor=#d6b656;" vertex="1" parent="1">
          <mxGeometry x="336" y="1294" width="245" height="120" as="geometry" />
        </mxCell>
        <mxCell id="cGZUAVI1Q5oGUs3ta00O-1176" value="" style="shape=partialRectangle;collapsible=0;dropTarget=0;pointerEvents=0;fillColor=none;points=[[0,0.5],[1,0.5]];portConstraint=eastwest;top=0;left=0;right=0;bottom=0;" vertex="1" parent="cGZUAVI1Q5oGUs3ta00O-1175">
          <mxGeometry y="30" width="245" height="30" as="geometry" />
        </mxCell>
        <mxCell id="cGZUAVI1Q5oGUs3ta00O-1177" value="PK" style="shape=partialRectangle;overflow=hidden;connectable=0;fillColor=none;top=0;left=0;bottom=0;right=0;fontStyle=1" vertex="1" parent="cGZUAVI1Q5oGUs3ta00O-1176">
          <mxGeometry width="45" height="30" as="geometry">
            <mxRectangle width="45" height="30" as="alternateBounds" />
          </mxGeometry>
        </mxCell>
        <mxCell id="cGZUAVI1Q5oGUs3ta00O-1178" value="setting_id NUMBER(10)" style="shape=partialRectangle;overflow=hidden;connectable=0;fillColor=none;top=0;left=0;bottom=0;right=0;align=left;spacingLeft=6;fontStyle=1" vertex="1" parent="cGZUAVI1Q5oGUs3ta00O-1176">
          <mxGeometry x="45" width="200" height="30" as="geometry">
            <mxRectangle width="200" height="30" as="alternateBounds" />
          </mxGeometry>
        </mxCell>
        <mxCell id="cGZUAVI1Q5oGUs3ta00O-1179" style="shape=partialRectangle;collapsible=0;dropTarget=0;pointerEvents=0;fillColor=none;points=[[0,0.5],[1,0.5]];portConstraint=eastwest;top=0;left=0;right=0;bottom=0;" vertex="1" parent="cGZUAVI1Q5oGUs3ta00O-1175">
          <mxGeometry y="60" width="245" height="30" as="geometry" />
        </mxCell>
        <mxCell id="cGZUAVI1Q5oGUs3ta00O-1180" style="shape=partialRectangle;overflow=hidden;connectable=0;fillColor=none;top=0;left=0;bottom=0;right=0;" vertex="1" parent="cGZUAVI1Q5oGUs3ta00O-1179">
          <mxGeometry width="45" height="30" as="geometry">
            <mxRectangle width="45" height="30" as="alternateBounds" />
          </mxGeometry>
        </mxCell>
        <mxCell id="cGZUAVI1Q5oGUs3ta00O-1181" value="setting_nameÂ Â VARCHAR(255)" style="shape=partialRectangle;overflow=hidden;connectable=0;fillColor=none;top=0;left=0;bottom=0;right=0;align=left;spacingLeft=6;" vertex="1" parent="cGZUAVI1Q5oGUs3ta00O-1179">
          <mxGeometry x="45" width="200" height="30" as="geometry">
            <mxRectangle width="200" height="30" as="alternateBounds" />
          </mxGeometry>
        </mxCell>
        <mxCell id="cGZUAVI1Q5oGUs3ta00O-1182" style="shape=partialRectangle;collapsible=0;dropTarget=0;pointerEvents=0;fillColor=none;points=[[0,0.5],[1,0.5]];portConstraint=eastwest;top=0;left=0;right=0;bottom=0;" vertex="1" parent="cGZUAVI1Q5oGUs3ta00O-1175">
          <mxGeometry y="90" width="245" height="30" as="geometry" />
        </mxCell>
        <mxCell id="cGZUAVI1Q5oGUs3ta00O-1183" style="shape=partialRectangle;overflow=hidden;connectable=0;fillColor=none;top=0;left=0;bottom=0;right=0;" vertex="1" parent="cGZUAVI1Q5oGUs3ta00O-1182">
          <mxGeometry width="45" height="30" as="geometry">
            <mxRectangle width="45" height="30" as="alternateBounds" />
          </mxGeometry>
        </mxCell>
        <mxCell id="cGZUAVI1Q5oGUs3ta00O-1184" value="setting_valueÂ NUMBER(10)" style="shape=partialRectangle;overflow=hidden;connectable=0;fillColor=none;top=0;left=0;bottom=0;right=0;align=left;spacingLeft=6;" vertex="1" parent="cGZUAVI1Q5oGUs3ta00O-1182">
          <mxGeometry x="45" width="200" height="30" as="geometry">
            <mxRectangle width="200" height="30" as="alternateBounds" />
          </mxGeometry>
        </mxCell>
        <mxCell id="cGZUAVI1Q5oGUs3ta00O-1185" value="Answers" style="shape=table;startSize=30;container=1;collapsible=1;childLayout=tableLayout;fixedRows=1;rowLines=0;fontStyle=1;align=center;resizeLast=1;fillColor=#fff2cc;strokeColor=#d6b656;" vertex="1" parent="1">
          <mxGeometry x="303.0023797607421" y="1110.9972595214845" width="200" height="150" as="geometry" />
        </mxCell>
        <mxCell id="cGZUAVI1Q5oGUs3ta00O-1186" value="" style="shape=partialRectangle;collapsible=0;dropTarget=0;pointerEvents=0;fillColor=none;points=[[0,0.5],[1,0.5]];portConstraint=eastwest;top=0;left=0;right=0;bottom=0;" vertex="1" parent="cGZUAVI1Q5oGUs3ta00O-1185">
          <mxGeometry y="30" width="200" height="30" as="geometry" />
        </mxCell>
        <mxCell id="cGZUAVI1Q5oGUs3ta00O-1187" value="PK" style="shape=partialRectangle;overflow=hidden;connectable=0;fillColor=none;top=0;left=0;bottom=0;right=0;fontStyle=1" vertex="1" parent="cGZUAVI1Q5oGUs3ta00O-1186">
          <mxGeometry width="34.44538286481588" height="30" as="geometry">
            <mxRectangle width="34.44538286481588" height="30" as="alternateBounds" />
          </mxGeometry>
        </mxCell>
        <mxCell id="cGZUAVI1Q5oGUs3ta00O-1188" value="answer_id NUMBER(10)" style="shape=partialRectangle;overflow=hidden;connectable=0;fillColor=none;top=0;left=0;bottom=0;right=0;align=left;spacingLeft=6;fontStyle=1" vertex="1" parent="cGZUAVI1Q5oGUs3ta00O-1186">
          <mxGeometry x="34.44538286481588" width="165.55461713518412" height="30" as="geometry">
            <mxRectangle width="165.55461713518412" height="30" as="alternateBounds" />
          </mxGeometry>
        </mxCell>
        <mxCell id="cGZUAVI1Q5oGUs3ta00O-1189" style="shape=partialRectangle;collapsible=0;dropTarget=0;pointerEvents=0;fillColor=none;points=[[0,0.5],[1,0.5]];portConstraint=eastwest;top=0;left=0;right=0;bottom=0;" vertex="1" parent="cGZUAVI1Q5oGUs3ta00O-1185">
          <mxGeometry y="60" width="200" height="30" as="geometry" />
        </mxCell>
        <mxCell id="cGZUAVI1Q5oGUs3ta00O-1190" value="FK" style="shape=partialRectangle;overflow=hidden;connectable=0;fillColor=none;top=0;left=0;bottom=0;right=0;" vertex="1" parent="cGZUAVI1Q5oGUs3ta00O-1189">
          <mxGeometry width="34.44538286481588" height="30" as="geometry">
            <mxRectangle width="34.44538286481588" height="30" as="alternateBounds" />
          </mxGeometry>
        </mxCell>
        <mxCell id="cGZUAVI1Q5oGUs3ta00O-1191" value="question_idÂ NUMBER(10)" style="shape=partialRectangle;overflow=hidden;connectable=0;fillColor=none;top=0;left=0;bottom=0;right=0;align=left;spacingLeft=6;" vertex="1" parent="cGZUAVI1Q5oGUs3ta00O-1189">
          <mxGeometry x="34.44538286481588" width="165.55461713518412" height="30" as="geometry">
            <mxRectangle width="165.55461713518412" height="30" as="alternateBounds" />
          </mxGeometry>
        </mxCell>
        <mxCell id="cGZUAVI1Q5oGUs3ta00O-1192" style="shape=partialRectangle;collapsible=0;dropTarget=0;pointerEvents=0;fillColor=none;points=[[0,0.5],[1,0.5]];portConstraint=eastwest;top=0;left=0;right=0;bottom=0;" vertex="1" parent="cGZUAVI1Q5oGUs3ta00O-1185">
          <mxGeometry y="90" width="200" height="30" as="geometry" />
        </mxCell>
        <mxCell id="cGZUAVI1Q5oGUs3ta00O-1193" value="" style="shape=partialRectangle;overflow=hidden;connectable=0;fillColor=none;top=0;left=0;bottom=0;right=0;" vertex="1" parent="cGZUAVI1Q5oGUs3ta00O-1192">
          <mxGeometry width="34.44538286481588" height="30" as="geometry">
            <mxRectangle width="34.44538286481588" height="30" as="alternateBounds" />
          </mxGeometry>
        </mxCell>
        <mxCell id="cGZUAVI1Q5oGUs3ta00O-1194" value="answer_textÂ NUMBER(10)" style="shape=partialRectangle;overflow=hidden;connectable=0;fillColor=none;top=0;left=0;bottom=0;right=0;align=left;spacingLeft=6;" vertex="1" parent="cGZUAVI1Q5oGUs3ta00O-1192">
          <mxGeometry x="34.44538286481588" width="165.55461713518412" height="30" as="geometry">
            <mxRectangle width="165.55461713518412" height="30" as="alternateBounds" />
          </mxGeometry>
        </mxCell>
        <mxCell id="cGZUAVI1Q5oGUs3ta00O-1195" style="shape=partialRectangle;collapsible=0;dropTarget=0;pointerEvents=0;fillColor=none;points=[[0,0.5],[1,0.5]];portConstraint=eastwest;top=0;left=0;right=0;bottom=0;" vertex="1" parent="cGZUAVI1Q5oGUs3ta00O-1185">
          <mxGeometry y="120" width="200" height="30" as="geometry" />
        </mxCell>
        <mxCell id="cGZUAVI1Q5oGUs3ta00O-1196" value="" style="shape=partialRectangle;overflow=hidden;connectable=0;fillColor=none;top=0;left=0;bottom=0;right=0;" vertex="1" parent="cGZUAVI1Q5oGUs3ta00O-1195">
          <mxGeometry width="34.44538286481588" height="30" as="geometry">
            <mxRectangle width="34.44538286481588" height="30" as="alternateBounds" />
          </mxGeometry>
        </mxCell>
        <mxCell id="cGZUAVI1Q5oGUs3ta00O-1197" value="is_correctÂ NUMBER(1)" style="shape=partialRectangle;overflow=hidden;connectable=0;fillColor=none;top=0;left=0;bottom=0;right=0;align=left;spacingLeft=6;" vertex="1" parent="cGZUAVI1Q5oGUs3ta00O-1195">
          <mxGeometry x="34.44538286481588" width="165.55461713518412" height="30" as="geometry">
            <mxRectangle width="165.55461713518412" height="30" as="alternateBounds" />
          </mxGeometry>
        </mxCell>
        <mxCell id="cGZUAVI1Q5oGUs3ta00O-1198" value="Tests" style="shape=table;startSize=30;container=1;collapsible=1;childLayout=tableLayout;fixedRows=1;rowLines=0;fontStyle=1;align=center;resizeLast=1;fillColor=#fff2cc;strokeColor=#d6b656;" vertex="1" parent="1">
          <mxGeometry x="614" y="888" width="273.75" height="180" as="geometry" />
        </mxCell>
        <mxCell id="cGZUAVI1Q5oGUs3ta00O-1199" value="" style="shape=partialRectangle;collapsible=0;dropTarget=0;pointerEvents=0;fillColor=none;points=[[0,0.5],[1,0.5]];portConstraint=eastwest;top=0;left=0;right=0;bottom=0;" vertex="1" parent="cGZUAVI1Q5oGUs3ta00O-1198">
          <mxGeometry y="30" width="273.75" height="30" as="geometry" />
        </mxCell>
        <mxCell id="cGZUAVI1Q5oGUs3ta00O-1200" value="PK" style="shape=partialRectangle;overflow=hidden;connectable=0;fillColor=none;top=0;left=0;bottom=0;right=0;fontStyle=1" vertex="1" parent="cGZUAVI1Q5oGUs3ta00O-1199">
          <mxGeometry width="45" height="30" as="geometry">
            <mxRectangle width="45" height="30" as="alternateBounds" />
          </mxGeometry>
        </mxCell>
        <mxCell id="cGZUAVI1Q5oGUs3ta00O-1201" value="test_id NUMBER(10)" style="shape=partialRectangle;overflow=hidden;connectable=0;fillColor=none;top=0;left=0;bottom=0;right=0;align=left;spacingLeft=6;fontStyle=1" vertex="1" parent="cGZUAVI1Q5oGUs3ta00O-1199">
          <mxGeometry x="45" width="228.75" height="30" as="geometry">
            <mxRectangle width="228.75" height="30" as="alternateBounds" />
          </mxGeometry>
        </mxCell>
        <mxCell id="cGZUAVI1Q5oGUs3ta00O-1202" style="shape=partialRectangle;collapsible=0;dropTarget=0;pointerEvents=0;fillColor=none;points=[[0,0.5],[1,0.5]];portConstraint=eastwest;top=0;left=0;right=0;bottom=0;" vertex="1" parent="cGZUAVI1Q5oGUs3ta00O-1198">
          <mxGeometry y="60" width="273.75" height="30" as="geometry" />
        </mxCell>
        <mxCell id="cGZUAVI1Q5oGUs3ta00O-1203" value="" style="shape=partialRectangle;overflow=hidden;connectable=0;fillColor=none;top=0;left=0;bottom=0;right=0;" vertex="1" parent="cGZUAVI1Q5oGUs3ta00O-1202">
          <mxGeometry width="45" height="30" as="geometry">
            <mxRectangle width="45" height="30" as="alternateBounds" />
          </mxGeometry>
        </mxCell>
        <mxCell id="cGZUAVI1Q5oGUs3ta00O-1204" value="test_nameÂ VARCHAR(255)" style="shape=partialRectangle;overflow=hidden;connectable=0;fillColor=none;top=0;left=0;bottom=0;right=0;align=left;spacingLeft=6;" vertex="1" parent="cGZUAVI1Q5oGUs3ta00O-1202">
          <mxGeometry x="45" width="228.75" height="30" as="geometry">
            <mxRectangle width="228.75" height="30" as="alternateBounds" />
          </mxGeometry>
        </mxCell>
        <mxCell id="cGZUAVI1Q5oGUs3ta00O-1205" style="shape=partialRectangle;collapsible=0;dropTarget=0;pointerEvents=0;fillColor=none;points=[[0,0.5],[1,0.5]];portConstraint=eastwest;top=0;left=0;right=0;bottom=0;" vertex="1" parent="cGZUAVI1Q5oGUs3ta00O-1198">
          <mxGeometry y="90" width="273.75" height="30" as="geometry" />
        </mxCell>
        <mxCell id="cGZUAVI1Q5oGUs3ta00O-1206" value="FK" style="shape=partialRectangle;overflow=hidden;connectable=0;fillColor=none;top=0;left=0;bottom=0;right=0;" vertex="1" parent="cGZUAVI1Q5oGUs3ta00O-1205">
          <mxGeometry width="45" height="30" as="geometry">
            <mxRectangle width="45" height="30" as="alternateBounds" />
          </mxGeometry>
        </mxCell>
        <mxCell id="cGZUAVI1Q5oGUs3ta00O-1207" value="creatorÂ NUMBER(10)" style="shape=partialRectangle;overflow=hidden;connectable=0;fillColor=none;top=0;left=0;bottom=0;right=0;align=left;spacingLeft=6;" vertex="1" parent="cGZUAVI1Q5oGUs3ta00O-1205">
          <mxGeometry x="45" width="228.75" height="30" as="geometry">
            <mxRectangle width="228.75" height="30" as="alternateBounds" />
          </mxGeometry>
        </mxCell>
        <mxCell id="cGZUAVI1Q5oGUs3ta00O-1208" style="shape=partialRectangle;collapsible=0;dropTarget=0;pointerEvents=0;fillColor=none;points=[[0,0.5],[1,0.5]];portConstraint=eastwest;top=0;left=0;right=0;bottom=0;" vertex="1" parent="cGZUAVI1Q5oGUs3ta00O-1198">
          <mxGeometry y="120" width="273.75" height="30" as="geometry" />
        </mxCell>
        <mxCell id="cGZUAVI1Q5oGUs3ta00O-1209" style="shape=partialRectangle;overflow=hidden;connectable=0;fillColor=none;top=0;left=0;bottom=0;right=0;" vertex="1" parent="cGZUAVI1Q5oGUs3ta00O-1208">
          <mxGeometry width="45" height="30" as="geometry">
            <mxRectangle width="45" height="30" as="alternateBounds" />
          </mxGeometry>
        </mxCell>
        <mxCell id="cGZUAVI1Q5oGUs3ta00O-1210" value="creation_date DATE" style="shape=partialRectangle;overflow=hidden;connectable=0;fillColor=none;top=0;left=0;bottom=0;right=0;align=left;spacingLeft=6;" vertex="1" parent="cGZUAVI1Q5oGUs3ta00O-1208">
          <mxGeometry x="45" width="228.75" height="30" as="geometry">
            <mxRectangle width="228.75" height="30" as="alternateBounds" />
          </mxGeometry>
        </mxCell>
        <mxCell id="cGZUAVI1Q5oGUs3ta00O-1211" style="shape=partialRectangle;collapsible=0;dropTarget=0;pointerEvents=0;fillColor=none;points=[[0,0.5],[1,0.5]];portConstraint=eastwest;top=0;left=0;right=0;bottom=0;" vertex="1" parent="cGZUAVI1Q5oGUs3ta00O-1198">
          <mxGeometry y="150" width="273.75" height="30" as="geometry" />
        </mxCell>
        <mxCell id="cGZUAVI1Q5oGUs3ta00O-1212" style="shape=partialRectangle;overflow=hidden;connectable=0;fillColor=none;top=0;left=0;bottom=0;right=0;" vertex="1" parent="cGZUAVI1Q5oGUs3ta00O-1211">
          <mxGeometry width="45" height="30" as="geometry">
            <mxRectangle width="45" height="30" as="alternateBounds" />
          </mxGeometry>
        </mxCell>
        <mxCell id="cGZUAVI1Q5oGUs3ta00O-1213" value="is_actiiveÂ NUMBER(1)" style="shape=partialRectangle;overflow=hidden;connectable=0;fillColor=none;top=0;left=0;bottom=0;right=0;align=left;spacingLeft=6;" vertex="1" parent="cGZUAVI1Q5oGUs3ta00O-1211">
          <mxGeometry x="45" width="228.75" height="30" as="geometry">
            <mxRectangle width="228.75" height="30" as="alternateBounds" />
          </mxGeometry>
        </mxCell>
        <mxCell id="cGZUAVI1Q5oGUs3ta00O-1214" value="Questions" style="shape=table;startSize=30;container=1;collapsible=1;childLayout=tableLayout;fixedRows=1;rowLines=0;fontStyle=1;align=center;resizeLast=1;fillColor=#fff2cc;strokeColor=#d6b656;" vertex="1" parent="1">
          <mxGeometry x="18" y="1108" width="218" height="150" as="geometry" />
        </mxCell>
        <mxCell id="cGZUAVI1Q5oGUs3ta00O-1215" value="" style="shape=partialRectangle;collapsible=0;dropTarget=0;pointerEvents=0;fillColor=none;points=[[0,0.5],[1,0.5]];portConstraint=eastwest;top=0;left=0;right=0;bottom=0;" vertex="1" parent="cGZUAVI1Q5oGUs3ta00O-1214">
          <mxGeometry y="30" width="218" height="30" as="geometry" />
        </mxCell>
        <mxCell id="cGZUAVI1Q5oGUs3ta00O-1216" value="PK" style="shape=partialRectangle;overflow=hidden;connectable=0;fillColor=none;top=0;left=0;bottom=0;right=0;fontStyle=1" vertex="1" parent="cGZUAVI1Q5oGUs3ta00O-1215">
          <mxGeometry width="35.617068336123566" height="30" as="geometry">
            <mxRectangle width="35.617068336123566" height="30" as="alternateBounds" />
          </mxGeometry>
        </mxCell>
        <mxCell id="cGZUAVI1Q5oGUs3ta00O-1217" value="question_id NUMBER(10)" style="shape=partialRectangle;overflow=hidden;connectable=0;fillColor=none;top=0;left=0;bottom=0;right=0;align=left;spacingLeft=6;fontStyle=1" vertex="1" parent="cGZUAVI1Q5oGUs3ta00O-1215">
          <mxGeometry x="35.617068336123566" width="182.38293166387643" height="30" as="geometry">
            <mxRectangle width="182.38293166387643" height="30" as="alternateBounds" />
          </mxGeometry>
        </mxCell>
        <mxCell id="cGZUAVI1Q5oGUs3ta00O-1218" style="shape=partialRectangle;collapsible=0;dropTarget=0;pointerEvents=0;fillColor=none;points=[[0,0.5],[1,0.5]];portConstraint=eastwest;top=0;left=0;right=0;bottom=0;" vertex="1" parent="cGZUAVI1Q5oGUs3ta00O-1214">
          <mxGeometry y="60" width="218" height="30" as="geometry" />
        </mxCell>
        <mxCell id="cGZUAVI1Q5oGUs3ta00O-1219" value="FK" style="shape=partialRectangle;overflow=hidden;connectable=0;fillColor=none;top=0;left=0;bottom=0;right=0;" vertex="1" parent="cGZUAVI1Q5oGUs3ta00O-1218">
          <mxGeometry width="35.617068336123566" height="30" as="geometry">
            <mxRectangle width="35.617068336123566" height="30" as="alternateBounds" />
          </mxGeometry>
        </mxCell>
        <mxCell id="cGZUAVI1Q5oGUs3ta00O-1220" value="test_idÂ NUMBER(10)" style="shape=partialRectangle;overflow=hidden;connectable=0;fillColor=none;top=0;left=0;bottom=0;right=0;align=left;spacingLeft=6;" vertex="1" parent="cGZUAVI1Q5oGUs3ta00O-1218">
          <mxGeometry x="35.617068336123566" width="182.38293166387643" height="30" as="geometry">
            <mxRectangle width="182.38293166387643" height="30" as="alternateBounds" />
          </mxGeometry>
        </mxCell>
        <mxCell id="cGZUAVI1Q5oGUs3ta00O-1221" style="shape=partialRectangle;collapsible=0;dropTarget=0;pointerEvents=0;fillColor=none;points=[[0,0.5],[1,0.5]];portConstraint=eastwest;top=0;left=0;right=0;bottom=0;" vertex="1" parent="cGZUAVI1Q5oGUs3ta00O-1214">
          <mxGeometry y="90" width="218" height="30" as="geometry" />
        </mxCell>
        <mxCell id="cGZUAVI1Q5oGUs3ta00O-1222" style="shape=partialRectangle;overflow=hidden;connectable=0;fillColor=none;top=0;left=0;bottom=0;right=0;" vertex="1" parent="cGZUAVI1Q5oGUs3ta00O-1221">
          <mxGeometry width="35.617068336123566" height="30" as="geometry">
            <mxRectangle width="35.617068336123566" height="30" as="alternateBounds" />
          </mxGeometry>
        </mxCell>
        <mxCell id="cGZUAVI1Q5oGUs3ta00O-1223" value="question_textÂ Â VARCHAR(255)" style="shape=partialRectangle;overflow=hidden;connectable=0;fillColor=none;top=0;left=0;bottom=0;right=0;align=left;spacingLeft=6;" vertex="1" parent="cGZUAVI1Q5oGUs3ta00O-1221">
          <mxGeometry x="35.617068336123566" width="182.38293166387643" height="30" as="geometry">
            <mxRectangle width="182.38293166387643" height="30" as="alternateBounds" />
          </mxGeometry>
        </mxCell>
        <mxCell id="cGZUAVI1Q5oGUs3ta00O-1224" style="shape=partialRectangle;collapsible=0;dropTarget=0;pointerEvents=0;fillColor=none;points=[[0,0.5],[1,0.5]];portConstraint=eastwest;top=0;left=0;right=0;bottom=0;" vertex="1" parent="cGZUAVI1Q5oGUs3ta00O-1214">
          <mxGeometry y="120" width="218" height="30" as="geometry" />
        </mxCell>
        <mxCell id="cGZUAVI1Q5oGUs3ta00O-1225" style="shape=partialRectangle;overflow=hidden;connectable=0;fillColor=none;top=0;left=0;bottom=0;right=0;" vertex="1" parent="cGZUAVI1Q5oGUs3ta00O-1224">
          <mxGeometry width="35.617068336123566" height="30" as="geometry">
            <mxRectangle width="35.617068336123566" height="30" as="alternateBounds" />
          </mxGeometry>
        </mxCell>
        <mxCell id="cGZUAVI1Q5oGUs3ta00O-1226" value="question_typeÂ Â VARCHAR(255)" style="shape=partialRectangle;overflow=hidden;connectable=0;fillColor=none;top=0;left=0;bottom=0;right=0;align=left;spacingLeft=6;" vertex="1" parent="cGZUAVI1Q5oGUs3ta00O-1224">
          <mxGeometry x="35.617068336123566" width="182.38293166387643" height="30" as="geometry">
            <mxRectangle width="182.38293166387643" height="30" as="alternateBounds" />
          </mxGeometry>
        </mxCell>
        <mxCell id="cGZUAVI1Q5oGUs3ta00O-1227" value="Roles" style="shape=table;startSize=30;container=1;collapsible=1;childLayout=tableLayout;fixedRows=1;rowLines=0;fontStyle=1;align=center;resizeLast=1;fillColor=#fff2cc;strokeColor=#d6b656;" vertex="1" parent="1">
          <mxGeometry x="307" y="888" width="207" height="90" as="geometry" />
        </mxCell>
        <mxCell id="cGZUAVI1Q5oGUs3ta00O-1228" value="" style="shape=partialRectangle;collapsible=0;dropTarget=0;pointerEvents=0;fillColor=none;points=[[0,0.5],[1,0.5]];portConstraint=eastwest;top=0;left=0;right=0;bottom=0;" vertex="1" parent="cGZUAVI1Q5oGUs3ta00O-1227">
          <mxGeometry y="30" width="207" height="30" as="geometry" />
        </mxCell>
        <mxCell id="cGZUAVI1Q5oGUs3ta00O-1229" value="PK" style="shape=partialRectangle;overflow=hidden;connectable=0;fillColor=none;top=0;left=0;bottom=0;right=0;fontStyle=1" vertex="1" parent="cGZUAVI1Q5oGUs3ta00O-1228">
          <mxGeometry width="37.62234642392127" height="30" as="geometry">
            <mxRectangle width="37.62234642392127" height="30" as="alternateBounds" />
          </mxGeometry>
        </mxCell>
        <mxCell id="cGZUAVI1Q5oGUs3ta00O-1230" value="role_id NUMBER(10)" style="shape=partialRectangle;overflow=hidden;connectable=0;fillColor=none;top=0;left=0;bottom=0;right=0;align=left;spacingLeft=6;fontStyle=1" vertex="1" parent="cGZUAVI1Q5oGUs3ta00O-1228">
          <mxGeometry x="37.62234642392127" width="169.37765357607873" height="30" as="geometry">
            <mxRectangle width="169.37765357607873" height="30" as="alternateBounds" />
          </mxGeometry>
        </mxCell>
        <mxCell id="cGZUAVI1Q5oGUs3ta00O-1231" style="shape=partialRectangle;collapsible=0;dropTarget=0;pointerEvents=0;fillColor=none;points=[[0,0.5],[1,0.5]];portConstraint=eastwest;top=0;left=0;right=0;bottom=0;" vertex="1" parent="cGZUAVI1Q5oGUs3ta00O-1227">
          <mxGeometry y="60" width="207" height="30" as="geometry" />
        </mxCell>
        <mxCell id="cGZUAVI1Q5oGUs3ta00O-1232" value="" style="shape=partialRectangle;overflow=hidden;connectable=0;fillColor=none;top=0;left=0;bottom=0;right=0;" vertex="1" parent="cGZUAVI1Q5oGUs3ta00O-1231">
          <mxGeometry width="37.62234642392127" height="30" as="geometry">
            <mxRectangle width="37.62234642392127" height="30" as="alternateBounds" />
          </mxGeometry>
        </mxCell>
        <mxCell id="cGZUAVI1Q5oGUs3ta00O-1233" value="role_nameÂ VARCHAR(255)" style="shape=partialRectangle;overflow=hidden;connectable=0;fillColor=none;top=0;left=0;bottom=0;right=0;align=left;spacingLeft=6;" vertex="1" parent="cGZUAVI1Q5oGUs3ta00O-1231">
          <mxGeometry x="37.62234642392127" width="169.37765357607873" height="30" as="geometry">
            <mxRectangle width="169.37765357607873" height="30" as="alternateBounds" />
          </mxGeometry>
        </mxCell>
        <mxCell id="cGZUAVI1Q5oGUs3ta00O-1234" value="Results" style="shape=table;startSize=30;container=1;collapsible=1;childLayout=tableLayout;fixedRows=1;rowLines=0;fontStyle=1;align=center;resizeLast=1;fillColor=#fff2cc;strokeColor=#d6b656;" vertex="1" parent="1">
          <mxGeometry x="653.75" y="1108" width="236" height="180" as="geometry" />
        </mxCell>
        <mxCell id="cGZUAVI1Q5oGUs3ta00O-1235" value="" style="shape=partialRectangle;collapsible=0;dropTarget=0;pointerEvents=0;fillColor=none;points=[[0,0.5],[1,0.5]];portConstraint=eastwest;top=0;left=0;right=0;bottom=0;" vertex="1" parent="cGZUAVI1Q5oGUs3ta00O-1234">
          <mxGeometry y="30" width="236" height="30" as="geometry" />
        </mxCell>
        <mxCell id="cGZUAVI1Q5oGUs3ta00O-1236" value="PK" style="shape=partialRectangle;overflow=hidden;connectable=0;fillColor=none;top=0;left=0;bottom=0;right=0;fontStyle=1" vertex="1" parent="cGZUAVI1Q5oGUs3ta00O-1235">
          <mxGeometry width="45" height="30" as="geometry">
            <mxRectangle width="45" height="30" as="alternateBounds" />
          </mxGeometry>
        </mxCell>
        <mxCell id="cGZUAVI1Q5oGUs3ta00O-1237" value="result_id NUMBER(10)" style="shape=partialRectangle;overflow=hidden;connectable=0;fillColor=none;top=0;left=0;bottom=0;right=0;align=left;spacingLeft=6;fontStyle=1" vertex="1" parent="cGZUAVI1Q5oGUs3ta00O-1235">
          <mxGeometry x="45" width="191" height="30" as="geometry">
            <mxRectangle width="191" height="30" as="alternateBounds" />
          </mxGeometry>
        </mxCell>
        <mxCell id="cGZUAVI1Q5oGUs3ta00O-1238" style="shape=partialRectangle;collapsible=0;dropTarget=0;pointerEvents=0;fillColor=none;points=[[0,0.5],[1,0.5]];portConstraint=eastwest;top=0;left=0;right=0;bottom=0;" vertex="1" parent="cGZUAVI1Q5oGUs3ta00O-1234">
          <mxGeometry y="60" width="236" height="30" as="geometry" />
        </mxCell>
        <mxCell id="cGZUAVI1Q5oGUs3ta00O-1239" value="FK" style="shape=partialRectangle;overflow=hidden;connectable=0;fillColor=none;top=0;left=0;bottom=0;right=0;" vertex="1" parent="cGZUAVI1Q5oGUs3ta00O-1238">
          <mxGeometry width="45" height="30" as="geometry">
            <mxRectangle width="45" height="30" as="alternateBounds" />
          </mxGeometry>
        </mxCell>
        <mxCell id="cGZUAVI1Q5oGUs3ta00O-1240" value="user_idÂ NUMBER(10)" style="shape=partialRectangle;overflow=hidden;connectable=0;fillColor=none;top=0;left=0;bottom=0;right=0;align=left;spacingLeft=6;" vertex="1" parent="cGZUAVI1Q5oGUs3ta00O-1238">
          <mxGeometry x="45" width="191" height="30" as="geometry">
            <mxRectangle width="191" height="30" as="alternateBounds" />
          </mxGeometry>
        </mxCell>
        <mxCell id="cGZUAVI1Q5oGUs3ta00O-1241" style="shape=partialRectangle;collapsible=0;dropTarget=0;pointerEvents=0;fillColor=none;points=[[0,0.5],[1,0.5]];portConstraint=eastwest;top=0;left=0;right=0;bottom=0;" vertex="1" parent="cGZUAVI1Q5oGUs3ta00O-1234">
          <mxGeometry y="90" width="236" height="30" as="geometry" />
        </mxCell>
        <mxCell id="cGZUAVI1Q5oGUs3ta00O-1242" value="FK" style="shape=partialRectangle;overflow=hidden;connectable=0;fillColor=none;top=0;left=0;bottom=0;right=0;" vertex="1" parent="cGZUAVI1Q5oGUs3ta00O-1241">
          <mxGeometry width="45" height="30" as="geometry">
            <mxRectangle width="45" height="30" as="alternateBounds" />
          </mxGeometry>
        </mxCell>
        <mxCell id="cGZUAVI1Q5oGUs3ta00O-1243" value="test_idÂ NUMBER(10)" style="shape=partialRectangle;overflow=hidden;connectable=0;fillColor=none;top=0;left=0;bottom=0;right=0;align=left;spacingLeft=6;" vertex="1" parent="cGZUAVI1Q5oGUs3ta00O-1241">
          <mxGeometry x="45" width="191" height="30" as="geometry">
            <mxRectangle width="191" height="30" as="alternateBounds" />
          </mxGeometry>
        </mxCell>
        <mxCell id="cGZUAVI1Q5oGUs3ta00O-1244" style="shape=partialRectangle;collapsible=0;dropTarget=0;pointerEvents=0;fillColor=none;points=[[0,0.5],[1,0.5]];portConstraint=eastwest;top=0;left=0;right=0;bottom=0;" vertex="1" parent="cGZUAVI1Q5oGUs3ta00O-1234">
          <mxGeometry y="120" width="236" height="30" as="geometry" />
        </mxCell>
        <mxCell id="cGZUAVI1Q5oGUs3ta00O-1245" value="" style="shape=partialRectangle;overflow=hidden;connectable=0;fillColor=none;top=0;left=0;bottom=0;right=0;" vertex="1" parent="cGZUAVI1Q5oGUs3ta00O-1244">
          <mxGeometry width="45" height="30" as="geometry">
            <mxRectangle width="45" height="30" as="alternateBounds" />
          </mxGeometry>
        </mxCell>
        <mxCell id="cGZUAVI1Q5oGUs3ta00O-1246" value="scoreÂ NUMBER(10)" style="shape=partialRectangle;overflow=hidden;connectable=0;fillColor=none;top=0;left=0;bottom=0;right=0;align=left;spacingLeft=6;" vertex="1" parent="cGZUAVI1Q5oGUs3ta00O-1244">
          <mxGeometry x="45" width="191" height="30" as="geometry">
            <mxRectangle width="191" height="30" as="alternateBounds" />
          </mxGeometry>
        </mxCell>
        <mxCell id="cGZUAVI1Q5oGUs3ta00O-1247" style="shape=partialRectangle;collapsible=0;dropTarget=0;pointerEvents=0;fillColor=none;points=[[0,0.5],[1,0.5]];portConstraint=eastwest;top=0;left=0;right=0;bottom=0;" vertex="1" parent="cGZUAVI1Q5oGUs3ta00O-1234">
          <mxGeometry y="150" width="236" height="30" as="geometry" />
        </mxCell>
        <mxCell id="cGZUAVI1Q5oGUs3ta00O-1248" style="shape=partialRectangle;overflow=hidden;connectable=0;fillColor=none;top=0;left=0;bottom=0;right=0;" vertex="1" parent="cGZUAVI1Q5oGUs3ta00O-1247">
          <mxGeometry width="45" height="30" as="geometry">
            <mxRectangle width="45" height="30" as="alternateBounds" />
          </mxGeometry>
        </mxCell>
        <mxCell id="cGZUAVI1Q5oGUs3ta00O-1249" value="date_taken DATE" style="shape=partialRectangle;overflow=hidden;connectable=0;fillColor=none;top=0;left=0;bottom=0;right=0;align=left;spacingLeft=6;" vertex="1" parent="cGZUAVI1Q5oGUs3ta00O-1247">
          <mxGeometry x="45" width="191" height="30" as="geometry">
            <mxRectangle width="191" height="30" as="alternateBounds" />
          </mxGeometry>
        </mxCell>
        <mxCell id="cGZUAVI1Q5oGUs3ta00O-1250" value="" style="edgeStyle=orthogonalEdgeStyle;endArrow=ERzeroToMany;startArrow=ERone;endFill=1;startFill=0;rounded=0;" edge="1" source="cGZUAVI1Q5oGUs3ta00O-1228" target="cGZUAVI1Q5oGUs3ta00O-1172" parent="1">
          <mxGeometry width="100" height="100" relative="1" as="geometry">
            <mxPoint x="331.5023797607423" y="932" as="sourcePoint" />
            <mxPoint x="249.0223797607423" y="1017.4072595214843" as="targetPoint" />
            <Array as="points">
              <mxPoint x="292" y="933" />
              <mxPoint x="292" y="1023" />
              <mxPoint x="237" y="1023" />
              <mxPoint x="237" y="993" />
            </Array>
          </mxGeometry>
        </mxCell>
        <mxCell id="cGZUAVI1Q5oGUs3ta00O-1251" value="" style="edgeStyle=orthogonalEdgeStyle;endArrow=ERzeroToMany;startArrow=ERone;endFill=1;startFill=0;rounded=0;" edge="1" target="cGZUAVI1Q5oGUs3ta00O-1238" parent="1">
          <mxGeometry width="100" height="100" relative="1" as="geometry">
            <mxPoint x="225.0023797607421" y="933" as="sourcePoint" />
            <mxPoint x="235" y="1023" as="targetPoint" />
            <Array as="points">
              <mxPoint x="261" y="933" />
              <mxPoint x="261" y="1001" />
              <mxPoint x="574" y="1001" />
              <mxPoint x="574" y="1183" />
            </Array>
          </mxGeometry>
        </mxCell>
        <mxCell id="cGZUAVI1Q5oGUs3ta00O-1252" value="" style="edgeStyle=orthogonalEdgeStyle;endArrow=ERzeroToMany;startArrow=ERone;endFill=1;startFill=0;rounded=0;" edge="1" source="cGZUAVI1Q5oGUs3ta00O-1199" target="cGZUAVI1Q5oGUs3ta00O-1218" parent="1">
          <mxGeometry width="100" height="100" relative="1" as="geometry">
            <mxPoint x="327" y="953" as="sourcePoint" />
            <mxPoint x="245" y="1043" as="targetPoint" />
            <Array as="points">
              <mxPoint x="535" y="933" />
              <mxPoint x="535" y="1043" />
              <mxPoint x="256" y="1043" />
              <mxPoint x="256" y="1183" />
            </Array>
          </mxGeometry>
        </mxCell>
        <mxCell id="cGZUAVI1Q5oGUs3ta00O-1253" value="" style="edgeStyle=orthogonalEdgeStyle;endArrow=ERzeroToMany;startArrow=ERone;endFill=1;startFill=0;rounded=0;" edge="1" source="cGZUAVI1Q5oGUs3ta00O-1199" target="cGZUAVI1Q5oGUs3ta00O-1241" parent="1">
          <mxGeometry width="100" height="100" relative="1" as="geometry">
            <mxPoint x="337" y="963" as="sourcePoint" />
            <mxPoint x="255" y="1053" as="targetPoint" />
            <Array as="points">
              <mxPoint x="555" y="933" />
              <mxPoint x="555" y="1213" />
            </Array>
          </mxGeometry>
        </mxCell>
        <mxCell id="cGZUAVI1Q5oGUs3ta00O-1254" value="" style="edgeStyle=orthogonalEdgeStyle;endArrow=ERzeroToMany;startArrow=ERone;endFill=1;startFill=0;rounded=0;" edge="1" source="cGZUAVI1Q5oGUs3ta00O-1215" target="cGZUAVI1Q5oGUs3ta00O-1189" parent="1">
          <mxGeometry width="100" height="100" relative="1" as="geometry">
            <mxPoint x="347" y="973" as="sourcePoint" />
            <mxPoint x="265" y="1063" as="targetPoint" />
            <Array as="points">
              <mxPoint x="272" y="1153" />
              <mxPoint x="272" y="1183" />
            </Array>
          </mxGeometry>
        </mxCell>
        <mxCell id="cGZUAVI1Q5oGUs3ta00O-1255" value="" style="edgeStyle=orthogonalEdgeStyle;endArrow=ERzeroToMany;startArrow=ERone;endFill=1;startFill=0;rounded=0;" edge="1" source="cGZUAVI1Q5oGUs3ta00O-1163" target="cGZUAVI1Q5oGUs3ta00O-1205" parent="1">
          <mxGeometry width="100" height="100" relative="1" as="geometry">
            <mxPoint x="357" y="983" as="sourcePoint" />
            <mxPoint x="275" y="1073" as="targetPoint" />
            <Array as="points">
              <mxPoint x="284" y="933" />
              <mxPoint x="284" y="993" />
            </Array>
          </mxGeometry>
        </mxCell>
        <mxCell id="cGZUAVI1Q5oGUs3ta00O-1259" value="" style="edgeStyle=orthogonalEdgeStyle;rounded=0;orthogonalLoop=1;jettySize=auto;html=1;" edge="1" parent="1" source="cGZUAVI1Q5oGUs3ta00O-523" target="cGZUAVI1Q5oGUs3ta00O-623">
          <mxGeometry relative="1" as="geometry" />
        </mxCell>
      </root>
    </mxGraphModel>
  </diagram>
</mxfile>
